<svg width="22" height="23" viewBox="0 0 22 23" fill="none" xmlns="http://www.w3.org/2000/svg">
<g clip-path="url(#clip0_394_1009)">
<path d="M14.5743 3.73635H7.42995C7.40852 3.73635 7.38719 3.73423 7.36608 3.73009C7.34497 3.72585 7.32449 3.7197 7.30465 3.71142C7.28481 3.70325 7.26593 3.69317 7.2481 3.68118C7.23017 3.6693 7.21362 3.65572 7.19845 3.64055C7.18328 3.62527 7.1697 3.60883 7.15771 3.59089C7.14583 3.57307 7.13575 3.55419 7.12747 3.53435C7.1193 3.51451 7.11304 3.49403 7.1089 3.47292C7.10466 3.45191 7.10254 3.43058 7.10254 3.40915V0.588918C7.10254 0.567486 7.10466 0.546161 7.1089 0.525048C7.11304 0.504041 7.1193 0.483565 7.12747 0.463725C7.13575 0.443885 7.14583 0.425 7.15771 0.40707C7.1697 0.389246 7.18328 0.372695 7.19845 0.357523C7.21362 0.342351 7.23017 0.328771 7.2481 0.316782C7.26593 0.3049 7.28481 0.294821 7.30465 0.286545C7.32449 0.278376 7.34497 0.272116 7.36608 0.267978C7.38719 0.263735 7.40852 0.261719 7.42995 0.261719H14.5743C14.5959 0.261719 14.6171 0.263735 14.6382 0.267978C14.6593 0.272116 14.6798 0.278376 14.6996 0.286545C14.7195 0.294821 14.7384 0.3049 14.7562 0.316782C14.7741 0.328771 14.7907 0.342351 14.8058 0.357523C14.821 0.372695 14.8346 0.389246 14.8466 0.40707C14.8585 0.425 14.8685 0.443885 14.8768 0.463725C14.885 0.483565 14.8912 0.504041 14.8955 0.525048C14.8996 0.546161 14.9017 0.567486 14.9017 0.588918V3.40915C14.9017 3.43058 14.8996 3.45191 14.8955 3.47292C14.8912 3.49403 14.885 3.51451 14.8768 3.53435C14.8685 3.55419 14.8585 3.57307 14.8466 3.59089C14.8346 3.60883 14.821 3.62527 14.8058 3.64055C14.7907 3.65572 14.7741 3.6693 14.7562 3.68118C14.7384 3.69317 14.7195 3.70325 14.6996 3.71142C14.6798 3.7197 14.6593 3.72585 14.6382 3.73009C14.6171 3.73423 14.5959 3.73635 14.5743 3.73635ZM7.75736 3.08185H14.2469V0.916223H7.75736V3.08185Z" fill="#868889"/>
<path d="M17.101 22.2625H4.90311C4.84974 22.2624 4.79648 22.2598 4.74333 22.2545C4.69028 22.2493 4.63755 22.2413 4.58514 22.2309C4.53284 22.2204 4.48117 22.2075 4.43003 22.192C4.379 22.1764 4.32881 22.1585 4.27948 22.138C4.23025 22.1176 4.18208 22.0948 4.13498 22.0695C4.08787 22.0444 4.04225 22.017 3.99779 21.9873C3.95345 21.9577 3.91069 21.9259 3.86942 21.892C3.82815 21.8582 3.78868 21.8225 3.75091 21.7847C3.71314 21.747 3.67739 21.7076 3.64354 21.6663C3.60959 21.625 3.57787 21.5823 3.54816 21.5379C3.51856 21.4936 3.49108 21.4478 3.46594 21.4008C3.44079 21.3538 3.41798 21.3057 3.39751 21.2563C3.37703 21.2071 3.3591 21.1569 3.3435 21.1059C3.32801 21.0548 3.31496 21.0032 3.30457 20.9508C3.29406 20.8985 3.28621 20.8458 3.28091 20.7927C3.2756 20.7396 3.27295 20.6864 3.27295 20.633V2.91981C3.27295 2.86644 3.2756 2.81329 3.28091 2.76013C3.28621 2.70709 3.29406 2.65436 3.30457 2.60205C3.31496 2.54975 3.32801 2.49808 3.3435 2.44704C3.35899 2.39601 3.37703 2.34583 3.39751 2.29649C3.41798 2.24727 3.44079 2.1991 3.46594 2.15199C3.49108 2.10499 3.51856 2.05926 3.54816 2.01492C3.57787 1.97057 3.60959 1.92781 3.64354 1.88654C3.67739 1.84538 3.71314 1.80591 3.75091 1.76814C3.78868 1.73037 3.82815 1.69461 3.86942 1.66077C3.91069 1.62692 3.95345 1.5952 3.99779 1.5655C4.04225 1.53589 4.08787 1.50842 4.13498 1.48327C4.18208 1.45813 4.23025 1.43532 4.27948 1.41484C4.32881 1.39436 4.379 1.37643 4.43003 1.36094C4.48117 1.34535 4.53284 1.3324 4.58514 1.3219C4.63755 1.3115 4.69028 1.30365 4.74333 1.29835C4.79648 1.29304 4.84974 1.29039 4.90311 1.29028H7.42988C7.45142 1.29028 7.47264 1.29241 7.49375 1.29665C7.51487 1.30079 7.53534 1.30705 7.55518 1.31522C7.57502 1.32349 7.59391 1.33357 7.61173 1.34545C7.62966 1.35744 7.64621 1.37102 7.66139 1.38619C7.67656 1.40137 7.69014 1.41792 7.70213 1.43574C7.71401 1.45367 7.72409 1.47245 7.73236 1.49229C7.74064 1.51224 7.74679 1.53261 7.75104 1.55372C7.75517 1.57483 7.7573 1.59605 7.7573 1.61759V3.08213H14.2469V1.61759C14.2469 1.59605 14.249 1.57483 14.2531 1.55372C14.2574 1.53261 14.2635 1.51224 14.2718 1.49229C14.2801 1.47245 14.2901 1.45367 14.302 1.43574C14.314 1.41792 14.3276 1.40137 14.3428 1.38619C14.3579 1.37102 14.3745 1.35744 14.3924 1.34545C14.4102 1.33357 14.4291 1.32349 14.449 1.31522C14.4688 1.30705 14.4893 1.30079 14.5104 1.29665C14.5315 1.29241 14.5527 1.29028 14.5743 1.29028H17.101C17.1544 1.29039 17.2077 1.29304 17.2608 1.29835C17.3139 1.30365 17.3666 1.3115 17.419 1.3219C17.4713 1.3324 17.523 1.34535 17.5741 1.36094C17.6251 1.37643 17.6753 1.39447 17.7247 1.41484C17.7739 1.43532 17.8221 1.45813 17.8692 1.48327C17.9162 1.50842 17.9619 1.53589 18.0064 1.5655C18.0507 1.5952 18.0935 1.62692 18.1347 1.66077C18.176 1.69461 18.2155 1.73037 18.2532 1.76814C18.291 1.80591 18.3268 1.84538 18.3606 1.88654C18.3944 1.92781 18.4263 1.97057 18.4559 2.01492C18.4856 2.05926 18.513 2.10499 18.5382 2.1521C18.5634 2.1991 18.5862 2.24727 18.6066 2.29649C18.6271 2.34583 18.645 2.39601 18.6606 2.44704C18.6761 2.49808 18.6892 2.54975 18.6996 2.60205C18.7101 2.65436 18.7179 2.70709 18.7232 2.76013C18.7284 2.81329 18.7312 2.86644 18.7312 2.91981V20.6331C18.7312 20.6865 18.7284 20.7396 18.7232 20.7928C18.7179 20.8458 18.7101 20.8986 18.6996 20.9509C18.6891 21.0032 18.6761 21.0548 18.6605 21.1059C18.645 21.1569 18.6271 21.2071 18.6066 21.2563C18.5862 21.3057 18.5634 21.3538 18.5382 21.4008C18.513 21.4479 18.4856 21.4936 18.4559 21.5379C18.4263 21.5823 18.3944 21.6251 18.3606 21.6663C18.3268 21.7076 18.2909 21.747 18.2532 21.7848C18.2155 21.8225 18.176 21.8582 18.1347 21.892C18.0935 21.926 18.0506 21.9577 18.0062 21.9873C17.9619 22.017 17.9162 22.0444 17.8692 22.0695C17.8221 22.0948 17.7739 22.1176 17.7246 22.138C17.6753 22.1585 17.6251 22.1764 17.574 22.192C17.523 22.2075 17.4713 22.2204 17.419 22.2309C17.3666 22.2413 17.3139 22.2493 17.2608 22.2545C17.2077 22.2598 17.1544 22.2624 17.101 22.2625ZM4.90311 1.94479C4.87117 1.94479 4.83924 1.94638 4.80752 1.94956C4.77569 1.95274 4.74418 1.95741 4.71288 1.96367C4.68158 1.96993 4.6506 1.97768 4.62005 1.98701C4.58949 1.99624 4.55947 2.00707 4.52997 2.01927C4.50048 2.03147 4.47162 2.04515 4.4435 2.06022C4.41539 2.07529 4.38801 2.09162 4.36138 2.10945C4.33486 2.12717 4.30929 2.14616 4.28457 2.16642C4.25985 2.18669 4.2363 2.20801 4.2137 2.23061C4.1911 2.25321 4.16967 2.27687 4.14941 2.30148C4.12914 2.3262 4.11015 2.35177 4.09243 2.37829C4.07461 2.40482 4.05827 2.43219 4.0432 2.46031C4.02814 2.48853 4.01445 2.51728 4.00225 2.54677C3.98994 2.57627 3.97923 2.60629 3.96989 2.63685C3.96066 2.66741 3.95292 2.69828 3.94666 2.72958C3.9404 2.76088 3.93562 2.79239 3.93244 2.82421C3.92936 2.85594 3.92767 2.88777 3.92767 2.9197V20.633C3.92767 20.6649 3.92936 20.6968 3.93244 20.7286C3.93562 20.7603 3.9404 20.7918 3.94666 20.8231C3.95281 20.8544 3.96066 20.8854 3.96989 20.916C3.97923 20.9464 3.98994 20.9764 4.00225 21.0059C4.01445 21.0354 4.02814 21.0643 4.0432 21.0924C4.05827 21.1205 4.07461 21.1479 4.09243 21.1744C4.11015 21.2009 4.12914 21.2266 4.14941 21.2512C4.16967 21.276 4.1911 21.2995 4.2137 21.3221C4.2363 21.3447 4.25985 21.3661 4.28457 21.3864C4.30929 21.4067 4.33486 21.4257 4.36138 21.4434C4.38801 21.4611 4.41539 21.4775 4.4435 21.4926C4.47162 21.5077 4.50048 21.5212 4.52997 21.5334C4.55947 21.5458 4.58949 21.5565 4.62005 21.5658C4.6506 21.575 4.68158 21.5829 4.71288 21.589C4.74418 21.5953 4.77569 21.6001 4.80752 21.6033C4.83924 21.6063 4.87117 21.6079 4.90311 21.608H17.101C17.133 21.6079 17.1649 21.6063 17.1966 21.6033C17.2285 21.6001 17.26 21.5953 17.2913 21.589C17.3226 21.5828 17.3535 21.575 17.3841 21.5658C17.4147 21.5565 17.4447 21.5458 17.4742 21.5334C17.5037 21.5212 17.5325 21.5076 17.5606 21.4926C17.5888 21.4775 17.6161 21.4611 17.6427 21.4434C17.6693 21.4255 17.6949 21.4066 17.7196 21.3864C17.7442 21.3661 17.7678 21.3447 17.7904 21.3221C17.813 21.2995 17.8345 21.276 17.8547 21.2512C17.875 21.2266 17.894 21.2009 17.9117 21.1744C17.9294 21.1479 17.9459 21.1205 17.9609 21.0924C17.976 21.0643 17.9897 21.0354 18.0019 21.0059C18.0141 20.9764 18.0249 20.9464 18.0341 20.916C18.0435 20.8854 18.0512 20.8544 18.0575 20.8231C18.0637 20.7918 18.0685 20.7603 18.0716 20.7286C18.0748 20.6968 18.0764 20.6649 18.0765 20.633V2.91981C18.0764 2.88787 18.0748 2.85604 18.0716 2.82432C18.0685 2.79249 18.0637 2.76098 18.0575 2.72968C18.0512 2.69839 18.0435 2.66741 18.0341 2.63696C18.0249 2.6064 18.0141 2.57638 18.0019 2.54688C17.9897 2.51739 17.976 2.48853 17.9609 2.46041C17.9459 2.4323 17.9294 2.40492 17.9117 2.3784C17.894 2.35188 17.875 2.32631 17.8547 2.30159C17.8345 2.27697 17.813 2.25331 17.7904 2.23072C17.7678 2.20812 17.7442 2.18679 17.7196 2.16653C17.6949 2.14626 17.6693 2.12727 17.6427 2.10945C17.6161 2.09173 17.5888 2.07539 17.5606 2.06033C17.5325 2.04526 17.5037 2.03157 17.4742 2.01937C17.4447 2.00707 17.4147 1.99635 17.3841 1.98701C17.3535 1.97778 17.3226 1.97004 17.2913 1.96378C17.26 1.95752 17.2285 1.95274 17.1966 1.94967C17.1649 1.94648 17.133 1.94489 17.101 1.94479H14.9017V3.40933C14.9017 3.43087 14.8996 3.45219 14.8953 3.4732C14.8912 3.49431 14.8849 3.51479 14.8767 3.53463C14.8685 3.55447 14.8584 3.57336 14.8465 3.59118C14.8345 3.60911 14.8209 3.62556 14.8058 3.64083C14.7906 3.656 14.774 3.66958 14.7561 3.68147C14.7383 3.69346 14.7194 3.70354 14.6996 3.7117C14.6796 3.71998 14.6592 3.72613 14.6381 3.73038C14.617 3.73452 14.5957 3.73664 14.5743 3.73664H7.42988C7.40845 3.73664 7.38713 3.73452 7.36601 3.73038C7.3449 3.72613 7.32443 3.71998 7.30459 3.7117C7.28475 3.70354 7.26586 3.69346 7.24804 3.68147C7.23011 3.66958 7.21356 3.656 7.19838 3.64083C7.18321 3.62556 7.16963 3.60911 7.15764 3.59118C7.14576 3.57336 7.13568 3.55447 7.12741 3.53463C7.11924 3.51479 7.11298 3.49431 7.10884 3.4732C7.10459 3.45219 7.10247 3.43087 7.10247 3.40933V1.94479H4.90311Z" fill="#868889"/>
<path d="M16.3812 7.51486H9.17946C9.15792 7.51486 9.13671 7.51273 9.11559 7.50849C9.09448 7.50435 9.074 7.49809 9.05416 7.48992C9.03432 7.48165 9.01544 7.47157 8.99761 7.45969C8.97968 7.4477 8.96313 7.43412 8.94796 7.41895C8.93279 7.40377 8.91921 7.38722 8.90722 7.3694C8.89534 7.35147 8.88526 7.33269 8.87698 7.31285C8.86881 7.2929 8.86255 7.27253 8.85842 7.25142C8.85417 7.23031 8.85205 7.20909 8.85205 7.18755C8.85205 7.16612 8.85417 7.14479 8.85842 7.12368C8.86255 7.10267 8.86881 7.0822 8.87698 7.06236C8.88526 7.04252 8.89534 7.02363 8.90722 7.0057C8.91921 6.98788 8.93279 6.97133 8.94796 6.95616C8.96313 6.94098 8.97968 6.9274 8.99761 6.91552C9.01544 6.90353 9.03432 6.89345 9.05416 6.88518C9.074 6.87701 9.09448 6.87075 9.11559 6.86661C9.13671 6.86237 9.15792 6.86035 9.17946 6.86035H16.3812C16.4027 6.86035 16.424 6.86237 16.4451 6.86661C16.4662 6.87075 16.4866 6.87701 16.5065 6.88518C16.5264 6.89345 16.5453 6.90353 16.5631 6.91552C16.581 6.9274 16.5976 6.94098 16.6127 6.95616C16.6279 6.97133 16.6415 6.98788 16.6535 7.00581C16.6654 7.02363 16.6754 7.04252 16.6837 7.06236C16.6919 7.0822 16.6981 7.10267 16.7023 7.12368C16.7065 7.14479 16.7086 7.16612 16.7086 7.18755C16.7086 7.20909 16.7065 7.23031 16.7023 7.25142C16.6981 7.27253 16.6919 7.2929 16.6837 7.31285C16.6754 7.33269 16.6654 7.35147 16.6535 7.3694C16.6415 7.38722 16.6279 7.40377 16.6127 7.41895C16.5976 7.43412 16.581 7.4477 16.5631 7.45969C16.5453 7.47157 16.5264 7.48165 16.5065 7.48992C16.4867 7.49809 16.4662 7.50435 16.4451 7.50849C16.424 7.51273 16.4027 7.51486 16.3812 7.51486Z" fill="#868889"/>
<path d="M6.3582 7.90414C6.3148 7.90425 6.273 7.89597 6.2329 7.87932C6.19279 7.86266 6.15746 7.839 6.1268 7.80823L5.39124 7.0731C5.37617 7.05782 5.3627 7.04127 5.35082 7.02344C5.33904 7.00562 5.32896 6.98673 5.3209 6.96689C5.31273 6.94705 5.30658 6.92668 5.30244 6.90568C5.2983 6.88456 5.29628 6.86335 5.29639 6.84191C5.29639 6.82048 5.29851 6.79926 5.30276 6.77826C5.307 6.75725 5.31315 6.73688 5.32143 6.71715C5.3296 6.69731 5.33968 6.67853 5.35167 6.6607C5.36355 6.64288 5.37713 6.62643 5.3923 6.61126C5.40737 6.59609 5.42392 6.58262 5.44174 6.57063C5.45957 6.55874 5.47834 6.54867 5.49808 6.5405C5.51792 6.53222 5.53829 6.52607 5.5593 6.52182C5.58041 6.51758 5.60163 6.51546 5.62306 6.51546C5.64449 6.51535 5.66571 6.51737 5.68672 6.52151C5.70772 6.52564 5.7282 6.5318 5.74804 6.53997C5.76788 6.54803 5.78666 6.558 5.80459 6.56988C5.82241 6.58166 5.83896 6.59514 5.85424 6.61031L6.3582 7.11405L7.76577 5.70722C7.78094 5.69194 7.79749 5.67826 7.81531 5.66616C7.83324 5.65417 7.85213 5.64399 7.87197 5.63561C7.89181 5.62733 7.91239 5.62107 7.9335 5.61683C7.95462 5.61248 7.97594 5.61036 7.99748 5.61036C8.01912 5.61025 8.04045 5.61237 8.06156 5.61651C8.08278 5.62065 8.10326 5.62691 8.1232 5.63508C8.14315 5.64335 8.16203 5.65343 8.17997 5.66542C8.1979 5.6773 8.21455 5.69099 8.22972 5.70616C8.245 5.72144 8.25858 5.73799 8.27057 5.75592C8.28256 5.77385 8.29264 5.79273 8.30081 5.81268C8.30908 5.83263 8.31524 5.8531 8.31948 5.87422C8.32362 5.89543 8.32574 5.91676 8.32563 5.9383C8.32563 5.95983 8.32341 5.98116 8.31916 6.00227C8.31492 6.02339 8.30866 6.04397 8.30028 6.06381C8.292 6.08365 8.28182 6.10253 8.26972 6.12046C8.25773 6.13829 8.24405 6.15484 8.22877 6.17001L6.5897 7.80834C6.55904 7.839 6.52371 7.86266 6.4836 7.87932C6.44339 7.89587 6.4017 7.90414 6.3582 7.90414Z" fill="#868889"/>
<path d="M16.3812 11.0017H9.17946C9.15792 11.0017 9.13671 10.9997 9.11559 10.9954C9.09448 10.9912 9.074 10.985 9.05416 10.9767C9.03432 10.9686 9.01544 10.9585 8.99761 10.9465C8.97968 10.9346 8.96313 10.921 8.94796 10.9059C8.93279 10.8907 8.91921 10.8741 8.90722 10.8562C8.89534 10.8384 8.88526 10.8195 8.87698 10.7997C8.86881 10.7798 8.86255 10.7593 8.85842 10.7383C8.85417 10.7172 8.85205 10.6959 8.85205 10.6745C8.85205 10.6529 8.85417 10.6317 8.85842 10.6106C8.86255 10.5895 8.86881 10.5691 8.87698 10.5492C8.88526 10.5293 8.89534 10.5106 8.90722 10.4926C8.91921 10.4748 8.93279 10.4583 8.94796 10.4431C8.96313 10.4278 8.97968 10.4143 8.99761 10.4023C9.01544 10.3905 9.03432 10.3804 9.05416 10.3721C9.074 10.3639 9.09448 10.3577 9.11559 10.3535C9.13671 10.3493 9.15792 10.3472 9.17946 10.3472H16.3812C16.4027 10.3472 16.424 10.3493 16.4451 10.3535C16.4662 10.3577 16.4866 10.3639 16.5065 10.3721C16.5264 10.3804 16.5453 10.3905 16.5631 10.4023C16.581 10.4143 16.5976 10.4278 16.6127 10.4431C16.6279 10.4583 16.6415 10.4748 16.6535 10.4926C16.6654 10.5106 16.6754 10.5293 16.6837 10.5492C16.6919 10.5691 16.6981 10.5895 16.7023 10.6106C16.7065 10.6317 16.7086 10.6529 16.7086 10.6745C16.7086 10.6959 16.7065 10.7172 16.7023 10.7383C16.6981 10.7593 16.6919 10.7798 16.6837 10.7997C16.6754 10.8195 16.6654 10.8384 16.6535 10.8562C16.6415 10.8741 16.6279 10.8907 16.6127 10.9059C16.5976 10.921 16.581 10.9346 16.5631 10.9465C16.5453 10.9585 16.5264 10.9686 16.5065 10.9767C16.4867 10.985 16.4662 10.9912 16.4451 10.9954C16.424 10.9997 16.4027 11.0017 16.3812 11.0017Z" fill="#868889"/>
<path d="M6.3582 11.3908C6.3148 11.3908 6.273 11.3826 6.2329 11.3659C6.19279 11.3494 6.15746 11.3257 6.1268 11.2949L5.39124 10.5597C5.37617 10.5445 5.3627 10.528 5.35082 10.5101C5.33904 10.4922 5.32896 10.4734 5.3209 10.4536C5.31273 10.4338 5.30658 10.4133 5.30244 10.3923C5.2983 10.3713 5.29628 10.35 5.29639 10.3286C5.29639 10.3072 5.29851 10.286 5.30276 10.265C5.307 10.2439 5.31315 10.2236 5.32143 10.2037C5.3296 10.184 5.33968 10.1652 5.35167 10.1474C5.36355 10.1296 5.37713 10.1131 5.3923 10.098C5.40737 10.0828 5.42392 10.0692 5.44174 10.0573C5.45957 10.0454 5.47834 10.0354 5.49808 10.0271C5.51792 10.0189 5.53829 10.0127 5.5593 10.0085C5.58041 10.0043 5.60163 10.0022 5.62306 10.002C5.64449 10.002 5.66571 10.0041 5.68672 10.0082C5.70772 10.0123 5.7282 10.0185 5.74804 10.0266C5.76788 10.0347 5.78676 10.0447 5.80459 10.0566C5.82241 10.0684 5.83896 10.0818 5.85424 10.0969L6.3582 10.6006L7.76566 9.1937C7.78083 9.17853 7.79738 9.16495 7.81531 9.15307C7.83314 9.14108 7.85202 9.131 7.87186 9.12283C7.89181 9.11456 7.91229 9.1084 7.93329 9.10416C7.95441 9.10002 7.97573 9.0979 7.99716 9.0979C8.0187 9.0979 8.04002 9.10002 8.06114 9.10416C8.08214 9.1084 8.10262 9.11456 8.12257 9.12283C8.14241 9.131 8.16129 9.14108 8.17912 9.15307C8.19705 9.16495 8.2136 9.17853 8.22877 9.19381C8.24394 9.20898 8.25752 9.22553 8.26951 9.24336C8.28139 9.26129 8.29147 9.28007 8.29975 9.29991C8.30792 9.31985 8.31418 9.34033 8.31831 9.36134C8.32256 9.38245 8.32468 9.40367 8.32468 9.42521C8.32468 9.44674 8.32256 9.46796 8.31831 9.48908C8.31418 9.51019 8.30792 9.53056 8.29975 9.5505C8.29147 9.57034 8.28139 9.58923 8.2694 9.60705C8.25752 9.62488 8.24394 9.64143 8.22877 9.6566L6.5897 11.2949C6.55904 11.3257 6.52371 11.3494 6.4835 11.366C6.44339 11.3826 6.4017 11.3908 6.3582 11.3908Z" fill="#868889"/>
<path d="M16.3812 14.4882H9.17946C9.15792 14.4882 9.13671 14.4861 9.11559 14.4819C9.09448 14.4777 9.074 14.4715 9.05416 14.4633C9.03432 14.455 9.01544 14.445 8.99761 14.4331C8.97968 14.4211 8.96313 14.4075 8.94796 14.3923C8.93279 14.3772 8.91921 14.3606 8.90722 14.3428C8.89534 14.3249 8.88526 14.3061 8.87698 14.2862C8.86881 14.2663 8.86255 14.2459 8.85842 14.2248C8.85417 14.2037 8.85205 14.1825 8.85205 14.1609C8.85205 14.1395 8.85417 14.1182 8.85842 14.0971C8.86255 14.0761 8.86881 14.0556 8.87698 14.0357C8.88526 14.0159 8.89534 13.997 8.90722 13.9792C8.91921 13.9613 8.93279 13.9447 8.94796 13.9295C8.96313 13.9144 8.97968 13.9008 8.99761 13.8888C9.01544 13.8769 9.03432 13.8668 9.05416 13.8586C9.074 13.8504 9.09448 13.8441 9.11559 13.84C9.13671 13.8358 9.15792 13.8337 9.17946 13.8337H16.3812C16.4027 13.8337 16.424 13.8358 16.4451 13.84C16.4662 13.8441 16.4866 13.8504 16.5065 13.8586C16.5264 13.8668 16.5453 13.8769 16.5631 13.8889C16.581 13.9008 16.5976 13.9144 16.6127 13.9295C16.6279 13.9447 16.6415 13.9613 16.6535 13.9792C16.6654 13.997 16.6754 14.0159 16.6837 14.0357C16.6919 14.0556 16.6981 14.0761 16.7023 14.0971C16.7065 14.1182 16.7086 14.1395 16.7086 14.1609C16.7086 14.1825 16.7065 14.2037 16.7023 14.2248C16.6981 14.2459 16.6919 14.2663 16.6837 14.2862C16.6754 14.3061 16.6654 14.3249 16.6535 14.3428C16.6415 14.3606 16.6279 14.3772 16.6127 14.3923C16.5976 14.4075 16.581 14.4211 16.5631 14.4331C16.5453 14.445 16.5264 14.455 16.5065 14.4633C16.4867 14.4715 16.4662 14.4777 16.4451 14.4819C16.424 14.4861 16.4027 14.4882 16.3812 14.4882Z" fill="#868889"/>
<path d="M6.35832 14.8775C6.31492 14.8776 6.27312 14.8693 6.23302 14.8526C6.19291 14.8361 6.15758 14.8124 6.12692 14.7817L5.39136 14.0464C5.37651 14.0311 5.36324 14.0146 5.35168 13.9968C5.34012 13.9788 5.33025 13.9601 5.3224 13.9403C5.31444 13.9206 5.3085 13.9002 5.30447 13.8793C5.30054 13.8584 5.29863 13.8373 5.29884 13.816C5.29895 13.7947 5.30118 13.7736 5.30542 13.7527C5.30967 13.732 5.31593 13.7117 5.3242 13.6921C5.33237 13.6723 5.34245 13.6538 5.35433 13.636C5.36621 13.6183 5.37969 13.602 5.39475 13.5869C5.40982 13.5719 5.42616 13.5584 5.44388 13.5466C5.46159 13.5347 5.48027 13.5246 5.4999 13.5165C5.51952 13.5083 5.53979 13.502 5.56069 13.4978C5.58159 13.4936 5.6026 13.4913 5.62392 13.4911C5.64525 13.491 5.66636 13.4929 5.68726 13.4968C5.70816 13.5009 5.72853 13.5068 5.74827 13.5148C5.76811 13.5227 5.78688 13.5325 5.80471 13.5441C5.82253 13.5557 5.83919 13.5689 5.85436 13.5837L6.35832 14.0875L7.76589 12.6805C7.78106 12.6655 7.79761 12.652 7.81554 12.6402C7.83336 12.6283 7.85225 12.6184 7.87209 12.6102C7.89193 12.6021 7.9123 12.596 7.93331 12.5918C7.95442 12.5877 7.97564 12.5857 7.99707 12.5857C8.0185 12.5858 8.03972 12.5879 8.06073 12.5922C8.08173 12.5963 8.1021 12.6026 8.12194 12.6107C8.14178 12.619 8.16056 12.6291 8.17839 12.641C8.19621 12.6529 8.21266 12.6664 8.22783 12.6816C8.243 12.6968 8.25647 12.7132 8.26846 12.731C8.28034 12.7489 8.29042 12.7676 8.2987 12.7874C8.30687 12.8072 8.31313 12.8276 8.31737 12.8486C8.32151 12.8696 8.32363 12.8908 8.32374 12.9123C8.32374 12.9337 8.32172 12.9549 8.31758 12.9759C8.31345 12.9969 8.3074 13.0174 8.29923 13.0372C8.29106 13.0571 8.28109 13.0759 8.2692 13.0938C8.25743 13.1116 8.24395 13.1282 8.22889 13.1433L6.58982 14.7817C6.55915 14.8124 6.52382 14.8361 6.48372 14.8526C6.44351 14.8693 6.40181 14.8776 6.35832 14.8775Z" fill="#868889"/>
<path d="M16.3812 17.9748H9.17946C9.15792 17.9748 9.13671 17.9727 9.11559 17.9686C9.09448 17.9643 9.074 17.9582 9.05416 17.9499C9.03432 17.9417 9.01544 17.9316 8.99761 17.9196C8.97968 17.9078 8.96313 17.8942 8.94796 17.879C8.93279 17.8638 8.91921 17.8473 8.90722 17.8294C8.89534 17.8115 8.88526 17.7927 8.87698 17.7728C8.86881 17.753 8.86255 17.7325 8.85842 17.7114C8.85417 17.6904 8.85205 17.669 8.85205 17.6476C8.85205 17.6261 8.85417 17.6049 8.85842 17.5837C8.86255 17.5626 8.86881 17.5422 8.87698 17.5223C8.88526 17.5025 8.89534 17.4836 8.90722 17.4658C8.91921 17.4479 8.93279 17.4314 8.94796 17.4162C8.96313 17.4009 8.97968 17.3875 8.99761 17.3755C9.01544 17.3636 9.03432 17.3535 9.05416 17.3452C9.074 17.3371 9.09448 17.3308 9.11559 17.3267C9.13671 17.3224 9.15792 17.3203 9.17946 17.3203H16.3812C16.4027 17.3203 16.424 17.3224 16.4451 17.3267C16.4662 17.3308 16.4866 17.3371 16.5065 17.3452C16.5264 17.3535 16.5453 17.3636 16.5631 17.3755C16.581 17.3875 16.5976 17.4009 16.6127 17.4162C16.6279 17.4314 16.6415 17.4479 16.6535 17.4658C16.6654 17.4836 16.6754 17.5025 16.6837 17.5223C16.6919 17.5422 16.6981 17.5626 16.7023 17.5837C16.7065 17.6049 16.7086 17.6261 16.7086 17.6476C16.7086 17.669 16.7065 17.6904 16.7023 17.7114C16.6981 17.7325 16.6919 17.753 16.6837 17.7728C16.6754 17.7927 16.6654 17.8115 16.6535 17.8294C16.6415 17.8473 16.6279 17.8638 16.6127 17.879C16.5976 17.8942 16.581 17.9078 16.5631 17.9196C16.5453 17.9316 16.5264 17.9417 16.5065 17.9499C16.4867 17.9582 16.4662 17.9643 16.4451 17.9686C16.424 17.9727 16.4027 17.9748 16.3812 17.9748Z" fill="#868889"/>
<path d="M6.35815 18.3643C6.31476 18.3643 6.27295 18.356 6.23285 18.3395C6.19275 18.3228 6.15742 18.2992 6.12675 18.2684L5.39119 17.5332C5.37592 17.518 5.36223 17.5015 5.35024 17.4836C5.33815 17.4658 5.32796 17.4469 5.31968 17.4271C5.31141 17.4071 5.30515 17.3866 5.30091 17.3655C5.29666 17.3444 5.29443 17.3231 5.29443 17.3016C5.29443 17.28 5.29645 17.2587 5.30059 17.2376C5.30483 17.2165 5.31098 17.1959 5.31926 17.1759C5.32743 17.1561 5.33751 17.1372 5.3495 17.1193C5.36149 17.1014 5.37507 17.0848 5.39034 17.0695C5.40552 17.0543 5.42217 17.0407 5.4401 17.0288C5.45793 17.0168 5.47692 17.0067 5.49676 16.9984C5.5167 16.9903 5.53729 16.984 5.5584 16.9799C5.57951 16.9757 5.60084 16.9736 5.62238 16.9737C5.64402 16.9737 5.66534 16.9758 5.68646 16.9801C5.70757 16.9843 5.72805 16.9907 5.74799 16.999C5.76783 17.0072 5.78672 17.0174 5.80454 17.0294C5.82247 17.0414 5.83902 17.0551 5.85419 17.0704L6.35815 17.5741L7.76561 16.1673C7.78079 16.1519 7.79734 16.1382 7.81516 16.1262C7.83309 16.1141 7.85198 16.1041 7.87182 16.0957C7.89176 16.0874 7.91224 16.0811 7.93335 16.0768C7.95457 16.0725 7.9759 16.0704 7.99743 16.0703C8.01897 16.0703 8.0403 16.0723 8.06152 16.0766C8.08263 16.0807 8.10321 16.0869 8.12305 16.0951C8.143 16.1033 8.16199 16.1135 8.17992 16.1254C8.19785 16.1374 8.2144 16.1509 8.22968 16.1662C8.24485 16.1815 8.25853 16.1981 8.27042 16.216C8.28241 16.2339 8.29249 16.2528 8.30076 16.2727C8.30893 16.2926 8.31519 16.3132 8.31933 16.3343C8.32347 16.3554 8.32559 16.3768 8.32548 16.3984C8.32548 16.4199 8.32336 16.4412 8.31901 16.4623C8.31477 16.4834 8.30851 16.5039 8.30023 16.5239C8.29185 16.5437 8.28166 16.5626 8.26968 16.5804C8.25758 16.5984 8.24389 16.6149 8.22862 16.6301L6.58965 18.2684C6.55899 18.2991 6.52355 18.3228 6.48345 18.3394C6.44334 18.356 6.40165 18.3643 6.35815 18.3643Z" fill="#868889"/>
</g>
<defs>
<clipPath id="clip0_394_1009">
<rect width="22" height="22" fill="white" transform="translate(0 0.262451)"/>
</clipPath>
</defs>
</svg>
