<svg width="42" height="42" viewBox="0 0 42 42" fill="none" xmlns="http://www.w3.org/2000/svg">
<path d="M29.1072 20.4862C29.0977 20.3865 29.0858 20.286 29.0719 20.1873C30.4771 18.7619 31.2969 16.8615 31.3696 14.8613C31.4423 12.861 30.7625 10.9062 29.4644 9.3826C29.3367 9.23257 29.1808 9.10916 29.0054 9.01941C28.83 8.92965 28.6387 8.87532 28.4424 8.8595C28.246 8.84369 28.0485 8.86671 27.861 8.92724C27.6735 8.98777 27.4998 9.08463 27.3498 9.21229C27.1998 9.33995 27.0764 9.49592 26.9866 9.67127C26.8969 9.84663 26.8425 10.0379 26.8267 10.2343C26.8109 10.4307 26.8339 10.6282 26.8945 10.8157C26.955 11.0031 27.0519 11.1768 27.1795 11.3269C27.7747 12.0224 28.167 12.8683 28.3135 13.7719C28.46 14.6755 28.3551 15.602 28.0101 16.45C27.9632 16.5659 27.9105 16.6794 27.8543 16.7915C26.9075 15.2715 25.5035 14.0905 23.8438 13.418C22.1842 12.7455 20.3541 12.6161 18.6163 13.0483C18.654 12.9287 18.6951 12.8105 18.7421 12.6947C19.0847 11.8456 19.6543 11.1071 20.3886 10.5602C21.1228 10.0132 21.9934 9.67877 22.9051 9.59355C23.1036 9.57801 23.2971 9.52308 23.4742 9.43197C23.6514 9.34086 23.8085 9.21538 23.9366 9.06287C24.0648 8.91036 24.1612 8.73386 24.2204 8.54368C24.2795 8.35349 24.3002 8.15343 24.2812 7.95516C24.2623 7.7569 24.204 7.5644 24.1098 7.38889C24.0156 7.21339 23.8874 7.0584 23.7327 6.93296C23.578 6.80753 23.3999 6.71416 23.2087 6.65831C23.0175 6.60245 22.8171 6.58523 22.6192 6.60766C20.6259 6.79717 18.7761 7.7273 17.4352 9.21433C16.0942 10.7014 15.3597 12.6372 15.3767 14.6394C15.2975 14.7018 15.2211 14.7639 15.1449 14.8287C13.2654 14.3399 11.2724 14.5505 9.53659 15.4214C7.80082 16.2923 6.44054 17.7641 5.70887 19.563C5.55947 19.9317 5.56267 20.3446 5.71774 20.711C5.87282 21.0773 6.16708 21.3671 6.53578 21.5165C6.90449 21.6659 7.31745 21.6627 7.6838 21.5076C8.05016 21.3525 8.3399 21.0583 8.4893 20.6896C8.85634 19.7843 9.48054 19.0063 10.2848 18.4518C11.089 17.8973 12.0381 17.5906 13.0147 17.5694C12.9288 17.745 12.8465 17.9247 12.7719 18.1089C12.1455 19.6599 11.9898 21.3611 12.3242 23C12.6587 24.639 13.4684 26.1431 14.6524 27.3247C13.6412 27.6491 12.5529 27.6432 11.5452 27.3076C10.5376 26.9721 9.66294 26.3244 9.04807 25.4585C8.93547 25.2947 8.79144 25.1549 8.62436 25.0473C8.45728 24.9397 8.27047 24.8663 8.0748 24.8315C7.87913 24.7967 7.67849 24.8011 7.48454 24.8445C7.29059 24.8879 7.1072 24.9694 6.94502 25.0843C6.78284 25.1992 6.64511 25.3451 6.53982 25.5137C6.43454 25.6823 6.36381 25.8701 6.33173 26.0662C6.29965 26.2624 6.30688 26.4629 6.35298 26.6563C6.39908 26.8496 6.48313 27.0318 6.60027 27.1924C7.78472 28.8633 9.56538 30.0159 11.5748 30.4123C13.5843 30.8086 15.6693 30.4185 17.3995 29.3225C17.8778 31.3143 19.1024 33.0465 20.8207 34.1616C22.539 35.2767 24.6198 35.6896 26.6337 35.3151C26.8295 35.2814 27.0167 35.209 27.1844 35.1023C27.3521 34.9956 27.4969 34.8567 27.6104 34.6935C27.7239 34.5304 27.8038 34.3463 27.8456 34.152C27.8873 33.9577 27.8901 33.757 27.8536 33.5616C27.8171 33.3663 27.7422 33.1801 27.6332 33.0139C27.5241 32.8478 27.3831 32.7049 27.2184 32.5937C27.0537 32.4825 26.8685 32.4051 26.6737 32.3661C26.4788 32.3271 26.2781 32.3271 26.0833 32.3663C25.039 32.56 23.9602 32.4162 23.0032 31.9557C22.0462 31.4952 21.2607 30.7419 20.7605 29.805C22.4339 29.7808 24.0631 29.2641 25.4445 28.3194C26.8259 27.3746 27.8983 26.0437 28.5276 24.493C28.6022 24.3088 28.6683 24.1225 28.7288 23.9366C29.4153 24.6316 29.8831 25.5125 30.0745 26.4704C30.2659 27.4284 30.1726 28.4214 29.8059 29.3268C29.6565 29.6955 29.6597 30.1085 29.8148 30.4749C29.9699 30.8412 30.2641 31.131 30.6328 31.2804C31.0015 31.4297 31.4145 31.4266 31.7808 31.2715C32.1472 31.1164 32.4369 30.8221 32.5863 30.4534C33.3132 28.6526 33.3611 26.6491 32.7211 24.8155C32.0812 22.982 30.7969 21.4435 29.1072 20.4862ZM22.7152 16.2035C24.0189 16.7312 25.0699 17.7399 25.6508 19.0209C25.0126 19.3482 24.3114 19.5341 23.5949 19.5659C22.8784 19.5978 22.1635 19.4749 21.4988 19.2055C20.8341 18.9362 20.2352 18.5268 19.743 18.0052C19.2508 17.4836 18.8768 16.862 18.6464 16.1828C19.955 15.6669 21.4119 15.6743 22.7152 16.2035ZM15.5523 19.2355C15.6635 18.9616 15.7964 18.6971 15.9497 18.4444C16.5035 18.8239 16.9751 19.3111 17.3365 19.8768C17.698 20.4425 17.9418 21.0752 18.0534 21.7372C18.165 22.3992 18.1422 23.0768 17.9863 23.7298C17.8304 24.3828 17.5446 24.9977 17.146 25.5378C16.2464 24.792 15.6072 23.7796 15.3207 22.6467C15.0342 21.5139 15.1153 20.3193 15.5523 19.2355ZM20.2132 26.7887C20.303 26.1234 20.5258 25.483 20.8684 24.9057C21.211 24.3284 21.6664 23.826 22.2073 23.4284C22.7483 23.0309 23.3637 22.7463 24.017 22.5917C24.6703 22.4372 25.348 22.4157 26.0097 22.5287C25.7161 23.8165 24.9688 24.9555 23.9045 25.7377C22.8402 26.5199 21.5299 26.893 20.2132 26.7887Z" fill="#81B622" fill-opacity="0.3"/>
</svg>
