<svg width="26" height="28" viewBox="0 0 26 28" fill="none" xmlns="http://www.w3.org/2000/svg">
<path d="M23 2.5H20.5V2C20.5 1.60218 20.342 1.22064 20.0607 0.93934C19.7794 0.658035 19.3978 0.5 19 0.5C18.6022 0.5 18.2206 0.658035 17.9393 0.93934C17.658 1.22064 17.5 1.60218 17.5 2V2.5H8.5V2C8.5 1.60218 8.34196 1.22064 8.06066 0.93934C7.77936 0.658035 7.39782 0.5 7 0.5C6.60218 0.5 6.22064 0.658035 5.93934 0.93934C5.65804 1.22064 5.5 1.60218 5.5 2V2.5H3C2.33696 2.5 1.70107 2.76339 1.23223 3.23223C0.763392 3.70107 0.5 4.33696 0.5 5V25C0.5 25.663 0.763392 26.2989 1.23223 26.7678C1.70107 27.2366 2.33696 27.5 3 27.5H23C23.663 27.5 24.2989 27.2366 24.7678 26.7678C25.2366 26.2989 25.5 25.663 25.5 25V5C25.5 4.33696 25.2366 3.70107 24.7678 3.23223C24.2989 2.76339 23.663 2.5 23 2.5ZM5.5 5.5C5.5 5.89782 5.65804 6.27936 5.93934 6.56066C6.22064 6.84196 6.60218 7 7 7C7.39782 7 7.77936 6.84196 8.06066 6.56066C8.34196 6.27936 8.5 5.89782 8.5 5.5H17.5C17.5 5.89782 17.658 6.27936 17.9393 6.56066C18.2206 6.84196 18.6022 7 19 7C19.3978 7 19.7794 6.84196 20.0607 6.56066C20.342 6.27936 20.5 5.89782 20.5 5.5H22.5V8.5H3.5V5.5H5.5ZM3.5 24.5V11.5H22.5V24.5H3.5ZM11 14.5V21.5C11 21.8978 10.842 22.2794 10.5607 22.5607C10.2794 22.842 9.89782 23 9.5 23C9.10218 23 8.72064 22.842 8.43934 22.5607C8.15804 22.2794 8 21.8978 8 21.5V16.915C7.64309 17.0321 7.25521 17.0111 6.91307 16.856C6.57092 16.701 6.29941 16.4232 6.15222 16.0776C6.00502 15.732 5.99286 15.3437 6.11813 14.9896C6.2434 14.6354 6.49698 14.3412 6.82875 14.165L8.82875 13.165C9.05695 13.0508 9.31052 12.9967 9.56546 13.0078C9.8204 13.019 10.0683 13.095 10.2857 13.2286C10.503 13.3623 10.6827 13.5492 10.8077 13.7717C10.9327 13.9941 10.9989 14.2448 11 14.5ZM18.6863 18.735L17.4875 20H18C18.3978 20 18.7794 20.158 19.0607 20.4393C19.342 20.7206 19.5 21.1022 19.5 21.5C19.5 21.8978 19.342 22.2794 19.0607 22.5607C18.7794 22.842 18.3978 23 18 23H14C13.7069 22.9999 13.4202 22.9139 13.1754 22.7527C12.9306 22.5914 12.7384 22.362 12.6226 22.0927C12.5068 21.8234 12.4724 21.5261 12.5237 21.2375C12.575 20.9489 12.7097 20.6816 12.9113 20.4688L16.4312 16.75C16.4757 16.6742 16.4995 16.5879 16.5 16.5C16.5003 16.3897 16.4641 16.2824 16.397 16.1948C16.33 16.1072 16.2359 16.0443 16.1293 16.0157C16.0228 15.9872 15.9098 15.9947 15.8079 16.0371C15.7061 16.0795 15.6211 16.1543 15.5662 16.25C15.3635 16.5868 15.0367 16.8305 14.656 16.9287C14.2754 17.0269 13.8715 16.9718 13.5311 16.7753C13.1907 16.5787 12.941 16.2564 12.8359 15.8776C12.7307 15.4988 12.7784 15.0939 12.9688 14.75C13.3539 14.0827 13.9486 13.5611 14.6604 13.2662C15.3723 12.9713 16.1616 12.9196 16.9058 13.119C17.6501 13.3184 18.3078 13.7578 18.7768 14.3692C19.2459 14.9805 19.5001 15.7295 19.5 16.5C19.5023 17.2608 19.2546 18.0012 18.795 18.6075C18.7615 18.6522 18.7251 18.6948 18.6863 18.735Z" fill="#81B622" fill-opacity="0.3"/>
</svg>
