<svg width="380" height="189" viewBox="0 0 380 189" fill="none" xmlns="http://www.w3.org/2000/svg">
<path d="M0 10C0 4.47715 4.47715 0 10 0H370C375.523 0 380 4.47715 380 10V179C380 184.523 375.523 189 370 189H10C4.47716 189 0 184.523 0 179V10Z" fill="#81B622"/>
<path fill-rule="evenodd" clip-rule="evenodd" d="M335 30.0366C332.043 39.9924 322.865 47.25 312 47.25C298.745 47.25 288 36.4477 288 23.1223C288 12.2 295.219 2.97276 305.122 0H10C4.47715 0 0 4.47715 0 10V179C0 184.523 4.47716 189 10 189H361.953C359.448 184.982 358 180.23 358 175.138C358 162.07 367.54 151.242 380 149.307V104.046C375.588 107.513 370.034 109.58 364 109.58C349.641 109.58 338 97.8774 338 83.4416C338 71.3202 346.207 61.1259 357.34 58.1687C344.783 56.8407 335 46.2171 335 33.3086V30.0366ZM335 16.208C332.694 8.44261 326.602 2.31873 318.878 0H370C370.011 0 370.022 1.73338e-05 370.033 5.19753e-05H335V16.208ZM380 58.3086H371.166C374.416 59.2433 377.405 60.798 380 62.8372V58.3086Z" fill="url(#paint0_linear_60_508)"/>
<path d="M354 145L361 152L354 159L347 152L354 145Z" fill="#F7CA57"/>
<path d="M328 50L338 60L328 70L318 60L328 50Z" fill="#EC6F5A"/>
<path d="M29.496 81L26.454 76.302L23.736 81H21.378L25.32 74.52L21.288 68.292H23.736L26.724 72.9L29.424 68.292H31.782L27.858 74.664L31.944 81H29.496ZM41.2684 81L38.2264 76.302L35.5084 81H33.1504L37.0924 74.52L33.0604 68.292H35.5084L38.4964 72.9L41.1964 68.292H43.5544L39.6304 74.664L43.7164 81H41.2684ZM53.0408 81L49.9988 76.302L47.2808 81H44.9228L48.8648 74.52L44.8328 68.292H47.2808L50.2688 72.9L52.9688 68.292H55.3268L51.4028 74.664L55.4888 81H53.0408ZM64.8133 81L61.7713 76.302L59.0533 81H56.6953L60.6373 74.52L56.6053 68.292H59.0533L62.0413 72.9L64.7413 68.292H67.0993L63.1753 74.664L67.2613 81H64.8133Z" fill="white"/>
<path d="M24.84 146.87C25.7067 146.87 26.4267 147.09 27 147.53C27.5733 147.97 27.96 148.567 28.16 149.32H26.95C26.7833 148.893 26.5167 148.557 26.15 148.31C25.79 148.057 25.3467 147.93 24.82 147.93C24.4 147.93 24.0233 148.033 23.69 148.24C23.3633 148.447 23.1033 148.743 22.91 149.13C22.7233 149.51 22.63 149.957 22.63 150.47C22.63 150.977 22.7233 151.423 22.91 151.81C23.1033 152.19 23.3633 152.483 23.69 152.69C24.0233 152.897 24.4 153 24.82 153C25.3467 153 25.79 152.877 26.15 152.63C26.5167 152.377 26.7833 152.04 26.95 151.62H28.16C27.96 152.373 27.5733 152.97 27 153.41C26.4267 153.843 25.7067 154.06 24.84 154.06C24.1733 154.06 23.5833 153.91 23.07 153.61C22.5567 153.303 22.16 152.88 21.88 152.34C21.6 151.793 21.46 151.17 21.46 150.47C21.46 149.77 21.6 149.15 21.88 148.61C22.16 148.063 22.5567 147.637 23.07 147.33C23.5833 147.023 24.1733 146.87 24.84 146.87ZM33.8074 152.47H30.8274L30.2874 154H29.0674L31.6674 147.05H32.9774L35.5674 154H34.3474L33.8074 152.47ZM33.4874 151.59L32.3174 148.29L31.1474 151.59H33.4874ZM40.4238 154L38.6638 151.18H37.8538V154H36.7138V146.94H39.2038C40.0105 146.94 40.6205 147.137 41.0338 147.53C41.4538 147.923 41.6638 148.443 41.6638 149.09C41.6638 149.643 41.5072 150.097 41.1938 150.45C40.8872 150.803 40.4405 151.03 39.8538 151.13L41.7038 154H40.4238ZM37.8538 150.37H39.1138C40.0338 150.37 40.4938 149.963 40.4938 149.15C40.4938 148.763 40.3805 148.463 40.1538 148.25C39.9338 148.03 39.5872 147.92 39.1138 147.92H37.8538V150.37ZM49.0504 150.46C49.0504 151.173 48.9037 151.797 48.6104 152.33C48.3237 152.857 47.9004 153.267 47.3404 153.56C46.7871 153.853 46.1237 154 45.3504 154H42.9904V146.94H45.3504C46.1237 146.94 46.7871 147.087 47.3404 147.38C47.9004 147.667 48.3237 148.073 48.6104 148.6C48.9037 149.127 49.0504 149.747 49.0504 150.46ZM45.2604 152.97C46.1071 152.97 46.7571 152.75 47.2104 152.31C47.6637 151.87 47.8904 151.253 47.8904 150.46C47.8904 149.667 47.6637 149.05 47.2104 148.61C46.7571 148.17 46.1071 147.95 45.2604 147.95H44.1304V152.97H45.2604ZM58.7512 146.94V154H57.6012V150.83H54.2812V154H53.1412V146.94H54.2812V149.9H57.6012V146.94H58.7512ZM63.7034 146.85C64.3567 146.85 64.9467 147.003 65.4734 147.31C66.0067 147.617 66.4234 148.047 66.7234 148.6C67.03 149.147 67.1834 149.767 67.1834 150.46C67.1834 151.153 67.03 151.777 66.7234 152.33C66.4234 152.877 66.0067 153.307 65.4734 153.62C64.9467 153.927 64.3567 154.08 63.7034 154.08C63.0434 154.08 62.4467 153.927 61.9134 153.62C61.3867 153.307 60.97 152.877 60.6634 152.33C60.3567 151.777 60.2034 151.153 60.2034 150.46C60.2034 149.767 60.3567 149.147 60.6634 148.6C60.97 148.047 61.3867 147.617 61.9134 147.31C62.4467 147.003 63.0434 146.85 63.7034 146.85ZM63.7034 147.91C63.25 147.91 62.8467 148.013 62.4934 148.22C62.14 148.427 61.8634 148.723 61.6634 149.11C61.47 149.497 61.3734 149.947 61.3734 150.46C61.3734 150.973 61.47 151.423 61.6634 151.81C61.8634 152.197 62.14 152.493 62.4934 152.7C62.8467 152.907 63.25 153.01 63.7034 153.01C64.15 153.01 64.5467 152.907 64.8934 152.7C65.2467 152.493 65.52 152.197 65.7134 151.81C65.9134 151.423 66.0134 150.973 66.0134 150.46C66.0134 149.947 65.9134 149.497 65.7134 149.11C65.52 148.723 65.2467 148.427 64.8934 148.22C64.5467 148.013 64.15 147.91 63.7034 147.91ZM69.7737 153.11H72.2137V154H68.6337V146.94H69.7737V153.11ZM79.4664 150.46C79.4664 151.173 79.3197 151.797 79.0264 152.33C78.7397 152.857 78.3164 153.267 77.7564 153.56C77.2031 153.853 76.5397 154 75.7664 154H73.4064V146.94H75.7664C76.5397 146.94 77.2031 147.087 77.7564 147.38C78.3164 147.667 78.7397 148.073 79.0264 148.6C79.3197 149.127 79.4664 149.747 79.4664 150.46ZM75.6764 152.97C76.5231 152.97 77.1731 152.75 77.6264 152.31C78.0797 151.87 78.3064 151.253 78.3064 150.46C78.3064 149.667 78.0797 149.05 77.6264 148.61C77.1731 148.17 76.5231 147.95 75.6764 147.95H74.5464V152.97H75.6764ZM82.0534 147.86V150H84.6534V150.88H82.0534V153.07H84.9534V154H80.9134V146.94H84.9534V147.86H82.0534ZM90.0699 154L88.3099 151.18H87.4999V154H86.3599V146.94H88.8499C89.6566 146.94 90.2666 147.137 90.6799 147.53C91.0999 147.923 91.3099 148.443 91.3099 149.09C91.3099 149.643 91.1533 150.097 90.8399 150.45C90.5333 150.803 90.0866 151.03 89.4999 151.13L91.3499 154H90.0699ZM87.4999 150.37H88.7599C89.6799 150.37 90.1399 149.963 90.1399 149.15C90.1399 148.763 90.0266 148.463 89.7999 148.25C89.5799 148.03 89.2333 147.92 88.7599 147.92H87.4999V150.37Z" fill="white"/>
<path d="M297.83 147.86V150H300.43V150.88H297.83V153.07H300.73V154H296.69V146.94H300.73V147.86H297.83ZM306.166 154L304.476 151.39L302.966 154H301.656L303.846 150.4L301.606 146.94H302.966L304.626 149.5L306.126 146.94H307.436L305.256 150.48L307.526 154H306.166ZM309.817 151.26V154H308.677V146.94H311.077C311.89 146.94 312.5 147.133 312.907 147.52C313.32 147.907 313.527 148.437 313.527 149.11C313.527 149.777 313.317 150.303 312.897 150.69C312.477 151.07 311.87 151.26 311.077 151.26H309.817ZM310.957 150.33C311.897 150.33 312.367 149.923 312.367 149.11C312.367 148.71 312.253 148.407 312.027 148.2C311.807 147.987 311.45 147.88 310.957 147.88H309.817V150.33H310.957ZM315.966 146.94V154H314.826V146.94H315.966ZM321.356 154L319.596 151.18H318.786V154H317.646V146.94H320.136C320.943 146.94 321.553 147.137 321.966 147.53C322.386 147.923 322.596 148.443 322.596 149.09C322.596 149.643 322.439 150.097 322.126 150.45C321.819 150.803 321.373 151.03 320.786 151.13L322.636 154H321.356ZM318.786 150.37H320.046C320.966 150.37 321.426 149.963 321.426 149.15C321.426 148.763 321.313 148.463 321.086 148.25C320.866 148.03 320.519 147.92 320.046 147.92H318.786V150.37ZM325.062 147.86V150H327.662V150.88H325.062V153.07H327.962V154H323.922V146.94H327.962V147.86H325.062ZM334.009 152.12C334.009 152.467 333.926 152.79 333.759 153.09C333.592 153.383 333.339 153.62 332.999 153.8C332.659 153.98 332.242 154.07 331.749 154.07C331.269 154.07 330.839 153.987 330.459 153.82C330.079 153.647 329.776 153.407 329.549 153.1C329.322 152.793 329.192 152.44 329.159 152.04H330.379C330.412 152.347 330.542 152.61 330.769 152.83C331.002 153.05 331.312 153.16 331.699 153.16C332.046 153.16 332.312 153.067 332.499 152.88C332.692 152.693 332.789 152.453 332.789 152.16C332.789 151.907 332.719 151.7 332.579 151.54C332.439 151.373 332.266 151.243 332.059 151.15C331.852 151.057 331.569 150.95 331.209 150.83C330.769 150.69 330.409 150.55 330.129 150.41C329.856 150.27 329.622 150.067 329.429 149.8C329.236 149.533 329.139 149.183 329.139 148.75C329.139 148.37 329.232 148.037 329.419 147.75C329.606 147.463 329.872 147.243 330.219 147.09C330.566 146.93 330.966 146.85 331.419 146.85C332.139 146.85 332.709 147.023 333.129 147.37C333.556 147.717 333.799 148.17 333.859 148.73H332.629C332.582 148.463 332.456 148.237 332.249 148.05C332.049 147.857 331.772 147.76 331.419 147.76C331.099 147.76 330.842 147.843 330.649 148.01C330.456 148.17 330.359 148.403 330.359 148.71C330.359 148.95 330.426 149.15 330.559 149.31C330.692 149.463 330.859 149.587 331.059 149.68C331.266 149.767 331.546 149.87 331.899 149.99C332.346 150.13 332.709 150.273 332.989 150.42C333.276 150.56 333.516 150.767 333.709 151.04C333.909 151.313 334.009 151.673 334.009 152.12Z" fill="white"/>
<path d="M26.964 168.404H23.628L23.076 170H21.312L24.324 161.612H26.28L29.292 170H27.516L26.964 168.404ZM26.508 167.06L25.296 163.556L24.084 167.06H26.508ZM35.5298 165.704C36.0018 165.792 36.3898 166.028 36.6938 166.412C36.9978 166.796 37.1498 167.236 37.1498 167.732C37.1498 168.18 37.0378 168.576 36.8138 168.92C36.5978 169.256 36.2818 169.52 35.8658 169.712C35.4498 169.904 34.9578 170 34.3898 170H30.7778V161.624H34.2338C34.8018 161.624 35.2898 161.716 35.6978 161.9C36.1138 162.084 36.4258 162.34 36.6338 162.668C36.8498 162.996 36.9578 163.368 36.9578 163.784C36.9578 164.272 36.8258 164.68 36.5618 165.008C36.3058 165.336 35.9618 165.568 35.5298 165.704ZM32.4578 165.08H33.9938C34.3938 165.08 34.7018 164.992 34.9178 164.816C35.1338 164.632 35.2418 164.372 35.2418 164.036C35.2418 163.7 35.1338 163.44 34.9178 163.256C34.7018 163.072 34.3938 162.98 33.9938 162.98H32.4578V165.08ZM34.1498 168.632C34.5578 168.632 34.8738 168.536 35.0978 168.344C35.3298 168.152 35.4458 167.88 35.4458 167.528C35.4458 167.168 35.3258 166.888 35.0858 166.688C34.8458 166.48 34.5218 166.376 34.1138 166.376H32.4578V168.632H34.1498ZM43.9848 168.404H40.6488L40.0968 170H38.3328L41.3448 161.612H43.3008L46.3128 170H44.5368L43.9848 168.404ZM43.5288 167.06L42.3168 163.556L41.1048 167.06H43.5288ZM54.4586 161.624L51.6266 167.084V170H49.9466V167.084L47.1026 161.624H48.9986L50.7986 165.452L52.5866 161.624H54.4586ZM59.6755 170.084C58.8915 170.084 58.1715 169.9 57.5155 169.532C56.8595 169.164 56.3395 168.656 55.9555 168.008C55.5715 167.352 55.3795 166.612 55.3795 165.788C55.3795 164.972 55.5715 164.24 55.9555 163.592C56.3395 162.936 56.8595 162.424 57.5155 162.056C58.1715 161.688 58.8915 161.504 59.6755 161.504C60.4675 161.504 61.1875 161.688 61.8355 162.056C62.4915 162.424 63.0075 162.936 63.3835 163.592C63.7675 164.24 63.9595 164.972 63.9595 165.788C63.9595 166.612 63.7675 167.352 63.3835 168.008C63.0075 168.656 62.4915 169.164 61.8355 169.532C61.1795 169.9 60.4595 170.084 59.6755 170.084ZM59.6755 168.584C60.1795 168.584 60.6235 168.472 61.0075 168.248C61.3915 168.016 61.6915 167.688 61.9075 167.264C62.1235 166.84 62.2315 166.348 62.2315 165.788C62.2315 165.228 62.1235 164.74 61.9075 164.324C61.6915 163.9 61.3915 163.576 61.0075 163.352C60.6235 163.128 60.1795 163.016 59.6755 163.016C59.1715 163.016 58.7235 163.128 58.3315 163.352C57.9475 163.576 57.6475 163.9 57.4315 164.324C57.2155 164.74 57.1075 165.228 57.1075 165.788C57.1075 166.348 57.2155 166.84 57.4315 167.264C57.6475 167.688 57.9475 168.016 58.3315 168.248C58.7235 168.472 59.1715 168.584 59.6755 168.584ZM74.7014 161.624V170H73.0214V164.552L70.7774 170H69.5054L67.2494 164.552V170H65.5694V161.624H67.4774L70.1414 167.852L72.8054 161.624H74.7014ZM78.4024 161.624V170H76.7224V161.624H78.4024ZM83.2336 165.8C83.2336 164.976 83.4176 164.24 83.7856 163.592C84.1616 162.936 84.6696 162.428 85.3096 162.068C85.9576 161.7 86.6816 161.516 87.4816 161.516C88.4176 161.516 89.2376 161.756 89.9416 162.236C90.6456 162.716 91.1376 163.38 91.4176 164.228H89.4856C89.2936 163.828 89.0216 163.528 88.6696 163.328C88.3256 163.128 87.9256 163.028 87.4696 163.028C86.9816 163.028 86.5456 163.144 86.1616 163.376C85.7856 163.6 85.4896 163.92 85.2736 164.336C85.0656 164.752 84.9616 165.24 84.9616 165.8C84.9616 166.352 85.0656 166.84 85.2736 167.264C85.4896 167.68 85.7856 168.004 86.1616 168.236C86.5456 168.46 86.9816 168.572 87.4696 168.572C87.9256 168.572 88.3256 168.472 88.6696 168.272C89.0216 168.064 89.2936 167.76 89.4856 167.36H91.4176C91.1376 168.216 90.6456 168.884 89.9416 169.364C89.2456 169.836 88.4256 170.072 87.4816 170.072C86.6816 170.072 85.9576 169.892 85.3096 169.532C84.6696 169.164 84.1616 168.656 83.7856 168.008C83.4176 167.36 83.2336 166.624 83.2336 165.8ZM100.161 161.624V170H98.4805V166.436H94.8925V170H93.2125V161.624H94.8925V165.068H98.4805V161.624H100.161ZM103.83 161.624V166.808C103.83 167.376 103.978 167.812 104.274 168.116C104.57 168.412 104.986 168.56 105.522 168.56C106.066 168.56 106.486 168.412 106.782 168.116C107.078 167.812 107.226 167.376 107.226 166.808V161.624H108.918V166.796C108.918 167.508 108.762 168.112 108.45 168.608C108.146 169.096 107.734 169.464 107.214 169.712C106.702 169.96 106.13 170.084 105.498 170.084C104.874 170.084 104.306 169.96 103.794 169.712C103.29 169.464 102.89 169.096 102.594 168.608C102.298 168.112 102.15 167.508 102.15 166.796V161.624H103.83ZM115.629 170L112.581 166.268V170H110.901V161.624H112.581V165.38L115.629 161.624H117.657L114.201 165.776L117.753 170H115.629ZM130.414 161.624L128.074 170H126.094L124.522 164.036L122.878 170L120.91 170.012L118.654 161.624H120.454L121.93 168.128L123.634 161.624H125.506L127.114 168.092L128.602 161.624H130.414ZM133.527 161.624V166.808C133.527 167.376 133.675 167.812 133.971 168.116C134.267 168.412 134.683 168.56 135.219 168.56C135.763 168.56 136.183 168.412 136.479 168.116C136.775 167.812 136.923 167.376 136.923 166.808V161.624H138.615V166.796C138.615 167.508 138.459 168.112 138.147 168.608C137.843 169.096 137.431 169.464 136.911 169.712C136.399 169.96 135.827 170.084 135.195 170.084C134.571 170.084 134.003 169.96 133.491 169.712C132.987 169.464 132.587 169.096 132.291 168.608C131.995 168.112 131.847 167.508 131.847 166.796V161.624H133.527ZM142.278 162.98V165.08H145.098V166.412H142.278V168.632H145.458V170H140.598V161.612H145.458V162.98H142.278ZM156.477 161.624V170H154.797V164.552L152.553 170H151.281L149.025 164.552V170H147.345V161.624H149.253L151.917 167.852L154.581 161.624H156.477ZM160.178 162.98V165.08H162.998V166.412H160.178V168.632H163.358V170H158.498V161.612H163.358V162.98H160.178ZM169.973 170L166.925 166.268V170H165.245V161.624H166.925V165.38L169.973 161.624H172.001L168.545 165.776L172.097 170H169.973ZM178.698 168.404H175.362L174.81 170H173.046L176.058 161.612H178.014L181.026 170H179.25L178.698 168.404ZM178.242 167.06L177.03 163.556L175.818 167.06H178.242Z" fill="white"/>
<path d="M298.447 165.692C298.447 168.564 299.527 170 301.687 170C302.831 170 303.655 169.616 304.159 168.848C304.663 168.08 304.915 167.028 304.915 165.692C304.915 164.364 304.663 163.316 304.159 162.548C303.655 161.78 302.831 161.396 301.687 161.396C299.527 161.396 298.447 162.828 298.447 165.692ZM303.247 165.692C303.247 166.564 303.139 167.236 302.923 167.708C302.715 168.172 302.303 168.404 301.687 168.404C301.063 168.404 300.643 168.172 300.427 167.708C300.219 167.236 300.115 166.564 300.115 165.692C300.115 164.828 300.219 164.164 300.427 163.7C300.643 163.228 301.063 162.992 301.687 162.992C302.303 162.992 302.715 163.228 302.923 163.7C303.139 164.164 303.247 164.828 303.247 165.692ZM305.969 163.112V161.528H309.017V170H307.241V163.112H305.969ZM317.883 158.636L314.631 172.172H312.999L316.251 158.636H317.883ZM321.49 168.668C324.202 166.788 325.558 165.228 325.558 163.988C325.558 163.612 325.466 163.316 325.282 163.1C325.106 162.884 324.826 162.776 324.442 162.776C323.65 162.776 323.23 163.316 323.182 164.396H321.538C321.586 163.396 321.89 162.64 322.45 162.128C323.01 161.608 323.718 161.348 324.574 161.348C325.446 161.348 326.114 161.576 326.578 162.032C327.05 162.48 327.286 163.08 327.286 163.832C327.286 164.424 327.11 165.02 326.758 165.62C326.414 166.212 325.974 166.76 325.438 167.264C324.902 167.76 324.338 168.188 323.746 168.548H327.454V169.928H321.49V168.668ZM328.647 168.668C331.359 166.788 332.715 165.228 332.715 163.988C332.715 163.612 332.623 163.316 332.439 163.1C332.263 162.884 331.983 162.776 331.599 162.776C330.807 162.776 330.387 163.316 330.339 164.396H328.695C328.743 163.396 329.047 162.64 329.607 162.128C330.167 161.608 330.875 161.348 331.731 161.348C332.603 161.348 333.271 161.576 333.735 162.032C334.207 162.48 334.443 163.08 334.443 163.832C334.443 164.424 334.267 165.02 333.915 165.62C333.571 166.212 333.131 166.76 332.595 167.264C332.059 167.76 331.495 168.188 330.903 168.548H334.611V169.928H328.647V168.668Z" fill="white"/>
<path d="M87.496 81L84.454 76.302L81.736 81H79.378L83.32 74.52L79.288 68.292H81.736L84.724 72.9L87.424 68.292H89.782L85.858 74.664L89.944 81H87.496ZM99.2684 81L96.2264 76.302L93.5084 81H91.1504L95.0924 74.52L91.0604 68.292H93.5084L96.4964 72.9L99.1964 68.292H101.554L97.6304 74.664L101.716 81H99.2684ZM111.041 81L107.999 76.302L105.281 81H102.923L106.865 74.52L102.833 68.292H105.281L108.269 72.9L110.969 68.292H113.327L109.403 74.664L113.489 81H111.041ZM122.813 81L119.771 76.302L117.053 81H114.695L118.637 74.52L114.605 68.292H117.053L120.041 72.9L122.741 68.292H125.099L121.175 74.664L125.261 81H122.813Z" fill="white"/>
<path d="M145.496 81L142.454 76.302L139.736 81H137.378L141.32 74.52L137.288 68.292H139.736L142.724 72.9L145.424 68.292H147.782L143.858 74.664L147.944 81H145.496ZM157.268 81L154.226 76.302L151.508 81H149.15L153.092 74.52L149.06 68.292H151.508L154.496 72.9L157.196 68.292H159.554L155.63 74.664L159.716 81H157.268ZM169.041 81L165.999 76.302L163.281 81H160.923L164.865 74.52L160.833 68.292H163.281L166.269 72.9L168.969 68.292H171.327L167.403 74.664L171.489 81H169.041ZM180.813 81L177.771 76.302L175.053 81H172.695L176.637 74.52L172.605 68.292H175.053L178.041 72.9L180.741 68.292H183.099L179.175 74.664L183.261 81H180.813Z" fill="white"/>
<path d="M196.26 71.244C196.26 70.62 196.428 70.05 196.764 69.534C197.1 69.018 197.598 68.604 198.258 68.292C198.93 67.98 199.734 67.824 200.67 67.824C201.606 67.824 202.404 67.98 203.064 68.292C203.736 68.604 204.24 69.018 204.576 69.534C204.924 70.05 205.098 70.62 205.098 71.244C205.098 71.94 204.912 72.54 204.54 73.044C204.18 73.548 203.64 73.914 202.92 74.142C203.724 74.394 204.342 74.802 204.774 75.366C205.206 75.918 205.422 76.596 205.422 77.4C205.422 78.636 204.984 79.602 204.108 80.298C203.232 80.982 202.086 81.324 200.67 81.324C199.254 81.324 198.108 80.982 197.232 80.298C196.368 79.602 195.936 78.636 195.936 77.4C195.936 76.596 196.152 75.918 196.584 75.366C197.016 74.802 197.634 74.394 198.438 74.142C197.718 73.914 197.172 73.548 196.8 73.044C196.44 72.54 196.26 71.94 196.26 71.244ZM198.294 71.568C198.294 72.216 198.504 72.72 198.924 73.08C199.356 73.428 199.938 73.602 200.67 73.602C201.402 73.602 201.984 73.428 202.416 73.08C202.848 72.72 203.064 72.216 203.064 71.568C203.064 70.92 202.842 70.416 202.398 70.056C201.966 69.696 201.39 69.516 200.67 69.516C199.95 69.516 199.374 69.696 198.942 70.056C198.51 70.416 198.294 70.92 198.294 71.568ZM197.934 77.292C197.934 78.024 198.18 78.6 198.672 79.02C199.164 79.428 199.83 79.632 200.67 79.632C201.51 79.632 202.176 79.428 202.668 79.02C203.16 78.6 203.406 78.024 203.406 77.292C203.406 76.548 203.148 75.99 202.632 75.618C202.128 75.234 201.474 75.042 200.67 75.042C199.878 75.042 199.224 75.234 198.708 75.618C198.192 76.002 197.934 76.56 197.934 77.292ZM215.553 69.768L210.819 81H208.659L213.465 70.002H207.165V68.22H215.553V69.768ZM219.745 77.328C219.841 78.012 220.075 78.54 220.447 78.912C220.831 79.284 221.347 79.47 221.995 79.47C222.907 79.47 223.585 79.11 224.029 78.39C224.485 77.658 224.713 76.512 224.713 74.952L224.695 74.34C224.503 74.988 224.101 75.51 223.489 75.906C222.889 76.29 222.187 76.482 221.383 76.482C220.135 76.482 219.157 76.11 218.449 75.366C217.741 74.61 217.387 73.56 217.387 72.216C217.387 71.4 217.549 70.668 217.873 70.02C218.197 69.372 218.683 68.862 219.331 68.49C219.979 68.106 220.777 67.914 221.725 67.914C223.561 67.914 224.821 68.478 225.505 69.606C226.201 70.722 226.549 72.27 226.549 74.25C226.549 76.494 226.195 78.204 225.487 79.38C224.791 80.556 223.627 81.144 221.995 81.144C220.735 81.144 219.745 80.79 219.025 80.082C218.317 79.362 217.909 78.444 217.801 77.328H219.745ZM224.497 72.432C224.497 71.652 224.269 71.004 223.813 70.488C223.369 69.96 222.697 69.696 221.797 69.696C221.053 69.696 220.453 69.918 219.997 70.362C219.553 70.806 219.331 71.43 219.331 72.234C219.331 73.086 219.553 73.74 219.997 74.196C220.453 74.652 221.071 74.88 221.851 74.88C222.307 74.88 222.733 74.79 223.129 74.61C223.537 74.418 223.867 74.142 224.119 73.782C224.371 73.41 224.497 72.96 224.497 72.432ZM228.951 74.556C228.951 76.584 229.311 78.174 230.031 79.326C230.751 80.466 231.951 81.036 233.631 81.036C235.311 81.036 236.511 80.46 237.231 79.308C237.951 78.156 238.311 76.572 238.311 74.556C238.311 72.552 237.951 70.98 237.231 69.84C236.511 68.688 235.311 68.112 233.631 68.112C231.951 68.112 230.751 68.682 230.031 69.822C229.311 70.962 228.951 72.54 228.951 74.556ZM236.259 74.556C236.259 76.02 236.079 77.142 235.719 77.922C235.359 78.702 234.663 79.092 233.631 79.092C232.587 79.092 231.885 78.702 231.525 77.922C231.165 77.142 230.985 76.02 230.985 74.556C230.985 73.104 231.165 71.994 231.525 71.226C231.885 70.458 232.587 70.074 233.631 70.074C234.663 70.074 235.359 70.464 235.719 71.244C236.079 72.012 236.259 73.116 236.259 74.556Z" fill="white"/>
<circle cx="64" cy="33" r="17" fill="#FFC107"/>
<circle opacity="0.8" cx="38" cy="33" r="17" fill="#F14336"/>
<circle cx="369.5" cy="12.5" r="1.5" fill="white"/>
<circle cx="369.5" cy="16.5" r="1.5" fill="white"/>
<circle cx="369.5" cy="20.5" r="1.5" fill="white"/>
<defs>
<linearGradient id="paint0_linear_60_508" x1="351.5" y1="-6.06759e-06" x2="87" y2="189" gradientUnits="userSpaceOnUse">
<stop stop-color="#AEDC81"/>
<stop offset="1" stop-color="#81B622"/>
</linearGradient>
</defs>
</svg>
