<svg width="105" height="26" viewBox="0 0 105 26" fill="none" xmlns="http://www.w3.org/2000/svg">
<path d="M35.914 10V8.065H39.529V19H37.369V10H35.914ZM44.1386 16.795L42.3836 21.01H41.0336L42.0086 16.795H44.1386ZM45.4122 13.39C45.4122 11.66 45.7222 10.305 46.3422 9.325C46.9722 8.345 48.0122 7.855 49.4622 7.855C50.9122 7.855 51.9472 8.345 52.5672 9.325C53.1972 10.305 53.5122 11.66 53.5122 13.39C53.5122 15.13 53.1972 16.495 52.5672 17.485C51.9472 18.475 50.9122 18.97 49.4622 18.97C48.0122 18.97 46.9722 18.475 46.3422 17.485C45.7222 16.495 45.4122 15.13 45.4122 13.39ZM51.4422 13.39C51.4422 12.65 51.3922 12.03 51.2922 11.53C51.2022 11.02 51.0122 10.605 50.7222 10.285C50.4422 9.965 50.0222 9.805 49.4622 9.805C48.9022 9.805 48.4772 9.965 48.1872 10.285C47.9072 10.605 47.7172 11.02 47.6172 11.53C47.5272 12.03 47.4822 12.65 47.4822 13.39C47.4822 14.15 47.5272 14.79 47.6172 15.31C47.7072 15.82 47.8972 16.235 48.1872 16.555C48.4772 16.865 48.9022 17.02 49.4622 17.02C50.0222 17.02 50.4472 16.865 50.7372 16.555C51.0272 16.235 51.2172 15.82 51.3072 15.31C51.3972 14.79 51.4422 14.15 51.4422 13.39ZM55.1095 13.39C55.1095 11.66 55.4195 10.305 56.0395 9.325C56.6695 8.345 57.7095 7.855 59.1595 7.855C60.6095 7.855 61.6445 8.345 62.2645 9.325C62.8945 10.305 63.2095 11.66 63.2095 13.39C63.2095 15.13 62.8945 16.495 62.2645 17.485C61.6445 18.475 60.6095 18.97 59.1595 18.97C57.7095 18.97 56.6695 18.475 56.0395 17.485C55.4195 16.495 55.1095 15.13 55.1095 13.39ZM61.1395 13.39C61.1395 12.65 61.0895 12.03 60.9895 11.53C60.8995 11.02 60.7095 10.605 60.4195 10.285C60.1395 9.965 59.7195 9.805 59.1595 9.805C58.5995 9.805 58.1745 9.965 57.8845 10.285C57.6045 10.605 57.4145 11.02 57.3145 11.53C57.2245 12.03 57.1795 12.65 57.1795 13.39C57.1795 14.15 57.2245 14.79 57.3145 15.31C57.4045 15.82 57.5945 16.235 57.8845 16.555C58.1745 16.865 58.5995 17.02 59.1595 17.02C59.7195 17.02 60.1445 16.865 60.4345 16.555C60.7245 16.235 60.9145 15.82 61.0045 15.31C61.0945 14.79 61.1395 14.15 61.1395 13.39ZM64.8067 13.39C64.8067 11.66 65.1167 10.305 65.7367 9.325C66.3667 8.345 67.4067 7.855 68.8567 7.855C70.3067 7.855 71.3417 8.345 71.9617 9.325C72.5917 10.305 72.9067 11.66 72.9067 13.39C72.9067 15.13 72.5917 16.495 71.9617 17.485C71.3417 18.475 70.3067 18.97 68.8567 18.97C67.4067 18.97 66.3667 18.475 65.7367 17.485C65.1167 16.495 64.8067 15.13 64.8067 13.39ZM70.8367 13.39C70.8367 12.65 70.7867 12.03 70.6867 11.53C70.5967 11.02 70.4067 10.605 70.1167 10.285C69.8367 9.965 69.4167 9.805 68.8567 9.805C68.2967 9.805 67.8717 9.965 67.5817 10.285C67.3017 10.605 67.1117 11.02 67.0117 11.53C66.9217 12.03 66.8767 12.65 66.8767 13.39C66.8767 14.15 66.9217 14.79 67.0117 15.31C67.1017 15.82 67.2917 16.235 67.5817 16.555C67.8717 16.865 68.2967 17.02 68.8567 17.02C69.4167 17.02 69.8417 16.865 70.1317 16.555C70.4217 16.235 70.6117 15.82 70.7017 15.31C70.7917 14.79 70.8367 14.15 70.8367 13.39ZM75.674 19.105C75.294 19.105 74.979 18.99 74.729 18.76C74.489 18.52 74.369 18.225 74.369 17.875C74.369 17.525 74.489 17.235 74.729 17.005C74.979 16.765 75.294 16.645 75.674 16.645C76.044 16.645 76.349 16.765 76.589 17.005C76.829 17.235 76.949 17.525 76.949 17.875C76.949 18.225 76.829 18.52 76.589 18.76C76.349 18.99 76.044 19.105 75.674 19.105ZM78.4005 13.39C78.4005 11.66 78.7105 10.305 79.3305 9.325C79.9605 8.345 81.0005 7.855 82.4505 7.855C83.9005 7.855 84.9355 8.345 85.5555 9.325C86.1855 10.305 86.5005 11.66 86.5005 13.39C86.5005 15.13 86.1855 16.495 85.5555 17.485C84.9355 18.475 83.9005 18.97 82.4505 18.97C81.0005 18.97 79.9605 18.475 79.3305 17.485C78.7105 16.495 78.4005 15.13 78.4005 13.39ZM84.4305 13.39C84.4305 12.65 84.3805 12.03 84.2805 11.53C84.1905 11.02 84.0005 10.605 83.7105 10.285C83.4305 9.965 83.0105 9.805 82.4505 9.805C81.8905 9.805 81.4655 9.965 81.1755 10.285C80.8955 10.605 80.7055 11.02 80.6055 11.53C80.5155 12.03 80.4705 12.65 80.4705 13.39C80.4705 14.15 80.5155 14.79 80.6055 15.31C80.6955 15.82 80.8855 16.235 81.1755 16.555C81.4655 16.865 81.8905 17.02 82.4505 17.02C83.0105 17.02 83.4355 16.865 83.7255 16.555C84.0155 16.235 84.2055 15.82 84.2955 15.31C84.3855 14.79 84.4305 14.15 84.4305 13.39ZM88.0977 13.39C88.0977 11.66 88.4077 10.305 89.0277 9.325C89.6577 8.345 90.6977 7.855 92.1477 7.855C93.5977 7.855 94.6327 8.345 95.2527 9.325C95.8827 10.305 96.1977 11.66 96.1977 13.39C96.1977 15.13 95.8827 16.495 95.2527 17.485C94.6327 18.475 93.5977 18.97 92.1477 18.97C90.6977 18.97 89.6577 18.475 89.0277 17.485C88.4077 16.495 88.0977 15.13 88.0977 13.39ZM94.1277 13.39C94.1277 12.65 94.0777 12.03 93.9777 11.53C93.8877 11.02 93.6977 10.605 93.4077 10.285C93.1277 9.965 92.7077 9.805 92.1477 9.805C91.5877 9.805 91.1627 9.965 90.8727 10.285C90.5927 10.605 90.4027 11.02 90.3027 11.53C90.2127 12.03 90.1677 12.65 90.1677 13.39C90.1677 14.15 90.2127 14.79 90.3027 15.31C90.3927 15.82 90.5827 16.235 90.8727 16.555C91.1627 16.865 91.5877 17.02 92.1477 17.02C92.7077 17.02 93.1327 16.865 93.4227 16.555C93.7127 16.235 93.9027 15.82 93.9927 15.31C94.0827 14.79 94.1277 14.15 94.1277 13.39Z" fill="#81B622"/>
<path d="M19 20V5H19.5L28.5 19H29V4M16 10H32M16 14H32" stroke="#81B622" stroke-width="2"/>
</svg>
