<svg width="19" height="25" viewBox="0 0 19 25" fill="none" xmlns="http://www.w3.org/2000/svg">
<path d="M16.5275 24.2546H3.08993C1.85568 24.2546 0.850342 23.2489 0.850342 22.0117V11.5449C0.850342 10.3077 1.85568 9.302 3.08993 9.302H16.5275C17.7617 9.302 18.767 10.3077 18.767 11.5449V22.0117C18.767 23.2489 17.7617 24.2546 16.5275 24.2546ZM3.08993 10.7973C2.67876 10.7973 2.3434 11.1322 2.3434 11.5449V22.0117C2.3434 22.4244 2.67876 22.7593 3.08993 22.7593H16.5275C16.9386 22.7593 17.274 22.4244 17.274 22.0117V11.5449C17.274 11.1322 16.9386 10.7973 16.5275 10.7973H3.08993Z" fill="#868889"/>
<path d="M15.0344 10.7973C14.6223 10.7973 14.2878 10.4623 14.2878 10.0496V6.31148C14.2878 3.83824 12.2783 1.8257 9.80866 1.8257C7.33906 1.8257 5.32948 3.83824 5.32948 6.31148V10.0496C5.32948 10.4623 4.99504 10.7973 4.58296 10.7973C4.17087 10.7973 3.83643 10.4623 3.83643 10.0496V6.31148C3.83643 3.01286 6.51489 0.330444 9.80866 0.330444C13.1024 0.330444 15.7809 3.01286 15.7809 6.31148V10.0496C15.7809 10.4623 15.4464 10.7973 15.0344 10.7973Z" fill="#868889"/>
</svg>
