<svg width="66" height="66" viewBox="0 0 66 66" fill="none" xmlns="http://www.w3.org/2000/svg">
<circle cx="33" cy="33" r="33" fill="#F5F5F5"/>
<g clip-path="url(#clip0_385_1210)">
<path d="M35.1863 15.7893H23.8202C23.7861 15.7893 23.7522 15.7859 23.7186 15.7793C23.685 15.7726 23.6524 15.7628 23.6209 15.7496C23.5893 15.7366 23.5593 15.7206 23.5309 15.7015C23.5024 15.6826 23.476 15.661 23.4519 15.6369C23.4278 15.6126 23.4062 15.5864 23.3871 15.5579C23.3682 15.5295 23.3521 15.4995 23.339 15.4679C23.326 15.4364 23.316 15.4038 23.3094 15.3702C23.3027 15.3368 23.2993 15.3029 23.2993 15.2688V10.782C23.2993 10.7479 23.3027 10.714 23.3094 10.6804C23.316 10.647 23.326 10.6144 23.339 10.5828C23.3521 10.5513 23.3682 10.5212 23.3871 10.4927C23.4062 10.4644 23.4278 10.438 23.4519 10.4139C23.476 10.3898 23.5024 10.3681 23.5309 10.3491C23.5593 10.3302 23.5893 10.3141 23.6209 10.301C23.6524 10.288 23.685 10.278 23.7186 10.2714C23.7522 10.2647 23.7861 10.2615 23.8202 10.2615H35.1863C35.2205 10.2615 35.2543 10.2647 35.2879 10.2714C35.3215 10.278 35.354 10.288 35.3856 10.301C35.4172 10.3141 35.4472 10.3302 35.4756 10.3491C35.5041 10.3681 35.5304 10.3898 35.5545 10.4139C35.5787 10.438 35.6003 10.4644 35.6194 10.4927C35.6383 10.5212 35.6543 10.5513 35.6675 10.5828C35.6805 10.6144 35.6904 10.647 35.6972 10.6804C35.7038 10.714 35.7071 10.7479 35.7071 10.782V15.2688C35.7071 15.3029 35.7038 15.3368 35.6972 15.3702C35.6904 15.4038 35.6805 15.4364 35.6675 15.4679C35.6543 15.4995 35.6383 15.5295 35.6194 15.5579C35.6003 15.5864 35.5787 15.6126 35.5545 15.6369C35.5304 15.661 35.5041 15.6826 35.4756 15.7015C35.4472 15.7206 35.4172 15.7366 35.3856 15.7496C35.354 15.7628 35.3215 15.7726 35.2879 15.7793C35.2543 15.7859 35.2205 15.7893 35.1863 15.7893ZM24.3411 14.748H34.6654V11.3027H24.3411V14.748Z" fill="#868889"/>
<path d="M39.2063 45.2624H19.8005C19.7156 45.2622 19.6308 45.258 19.5463 45.2496C19.4619 45.2413 19.378 45.2287 19.2946 45.2121C19.2114 45.1954 19.1292 45.1748 19.0478 45.1502C18.9667 45.1254 18.8868 45.0968 18.8083 45.0643C18.73 45.0318 18.6534 44.9956 18.5784 44.9554C18.5035 44.9154 18.4309 44.8718 18.3602 44.8246C18.2896 44.7775 18.2216 44.7268 18.156 44.673C18.0903 44.6192 18.0275 44.5623 17.9674 44.5022C17.9073 44.4423 17.8505 44.3795 17.7966 44.3138C17.7426 44.2482 17.6921 44.1801 17.6449 44.1096C17.5978 44.039 17.5541 43.9663 17.5141 43.8915C17.4741 43.8167 17.4378 43.7401 17.4052 43.6616C17.3726 43.5833 17.3441 43.5035 17.3193 43.4223C17.2946 43.3411 17.2739 43.2589 17.2573 43.1755C17.2406 43.0923 17.2281 43.0086 17.2197 42.924C17.2113 42.8396 17.207 42.7549 17.207 42.67V14.4899C17.207 14.405 17.2113 14.3204 17.2197 14.2359C17.2281 14.1515 17.2406 14.0676 17.2573 13.9844C17.2739 13.9012 17.2946 13.819 17.3193 13.7378C17.3439 13.6566 17.3726 13.5767 17.4052 13.4983C17.4378 13.4199 17.4741 13.3433 17.5141 13.2684C17.5541 13.1936 17.5978 13.1208 17.6449 13.0503C17.6921 12.9797 17.7426 12.9117 17.7966 12.8461C17.8505 12.7806 17.9073 12.7178 17.9674 12.6577C18.0275 12.5976 18.0903 12.5407 18.156 12.4869C18.2216 12.433 18.2896 12.3826 18.3602 12.3353C18.4309 12.2882 18.5035 12.2445 18.5784 12.2045C18.6534 12.1645 18.73 12.1282 18.8083 12.0956C18.8868 12.063 18.9667 12.0345 19.0478 12.0099C19.1292 11.9851 19.2114 11.9645 19.2946 11.9478C19.378 11.9312 19.4619 11.9187 19.5463 11.9103C19.6308 11.9018 19.7156 11.8976 19.8005 11.8975H23.8203C23.8546 11.8975 23.8884 11.9008 23.9219 11.9076C23.9555 11.9142 23.9881 11.9241 24.0197 11.9371C24.0512 11.9503 24.0813 11.9663 24.1096 11.9852C24.1382 12.0043 24.1645 12.0259 24.1886 12.05C24.2128 12.0742 24.2344 12.1005 24.2534 12.1289C24.2724 12.1574 24.2884 12.1873 24.3016 12.2188C24.3147 12.2506 24.3245 12.283 24.3313 12.3166C24.3378 12.3502 24.3412 12.3839 24.3412 12.4182V14.7481H34.6655V12.4182C34.6655 12.3839 34.6689 12.3502 34.6755 12.3166C34.6822 12.283 34.692 12.2506 34.7052 12.2188C34.7183 12.1873 34.7344 12.1574 34.7533 12.1289C34.7724 12.1005 34.794 12.0742 34.8181 12.05C34.8422 12.0259 34.8686 12.0043 34.8971 11.9852C34.9254 11.9663 34.9555 11.9503 34.9871 11.9371C35.0186 11.9241 35.0512 11.9142 35.0848 11.9076C35.1184 11.9008 35.1521 11.8975 35.1864 11.8975H39.2063C39.2912 11.8976 39.3759 11.9018 39.4605 11.9103C39.5449 11.9187 39.6287 11.9312 39.7121 11.9478C39.7953 11.9645 39.8775 11.9851 39.9589 12.0099C40.0401 12.0345 40.1199 12.0632 40.1984 12.0956C40.2767 12.1282 40.3533 12.1645 40.4283 12.2045C40.5031 12.2445 40.5758 12.2882 40.6465 12.3353C40.7171 12.3826 40.7851 12.433 40.8508 12.4869C40.9164 12.5407 40.9792 12.5976 41.0393 12.6577C41.0994 12.7178 41.1563 12.7806 41.2101 12.8461C41.264 12.9117 41.3146 12.9797 41.3617 13.0503C41.409 13.1208 41.4525 13.1936 41.4927 13.2685C41.5327 13.3433 41.569 13.4199 41.6015 13.4983C41.6341 13.5767 41.6626 13.6566 41.6875 13.7378C41.7121 13.819 41.7329 13.9012 41.7494 13.9844C41.7661 14.0676 41.7786 14.1515 41.787 14.2359C41.7953 14.3204 41.7997 14.405 41.7997 14.4899V42.6702C41.7997 42.7551 41.7953 42.8396 41.787 42.9242C41.7786 43.0086 41.7661 43.0925 41.7494 43.1757C41.7327 43.2589 41.7121 43.3411 41.6873 43.4223C41.6626 43.5035 41.6341 43.5833 41.6015 43.6616C41.569 43.7401 41.5327 43.8167 41.4927 43.8915C41.4525 43.9664 41.409 44.039 41.3617 44.1096C41.3146 44.1801 41.264 44.2483 41.2101 44.3138C41.1563 44.3795 41.0992 44.4423 41.0393 44.5024C40.9792 44.5623 40.9164 44.6192 40.8508 44.673C40.7851 44.727 40.7169 44.7775 40.6464 44.8246C40.5758 44.8718 40.5031 44.9154 40.4283 44.9554C40.3533 44.9956 40.2767 45.0318 40.1982 45.0643C40.1199 45.0968 40.0401 45.1254 39.9587 45.1502C39.8775 45.1748 39.7953 45.1954 39.7121 45.2121C39.6287 45.2287 39.5449 45.2413 39.4605 45.2496C39.3759 45.258 39.2912 45.2622 39.2063 45.2624ZM19.8005 12.9387C19.7497 12.9387 19.6989 12.9412 19.6484 12.9463C19.5978 12.9514 19.5476 12.9588 19.4978 12.9688C19.448 12.9787 19.3988 12.991 19.3501 13.0059C19.3015 13.0206 19.2538 13.0378 19.2068 13.0572C19.1599 13.0766 19.114 13.0984 19.0693 13.1224C19.0245 13.1463 18.981 13.1723 18.9386 13.2007C18.8964 13.2289 18.8558 13.2591 18.8164 13.2913C18.7771 13.3236 18.7396 13.3575 18.7037 13.3934C18.6677 13.4294 18.6336 13.467 18.6014 13.5062C18.5692 13.5455 18.5389 13.5862 18.5108 13.6284C18.4824 13.6706 18.4564 13.7141 18.4324 13.7589C18.4085 13.8038 18.3867 13.8495 18.3673 13.8964C18.3477 13.9433 18.3307 13.9911 18.3158 14.0397C18.3011 14.0883 18.2888 14.1375 18.2788 14.1872C18.2689 14.237 18.2613 14.2872 18.2562 14.3378C18.2513 14.3883 18.2486 14.4389 18.2486 14.4897V42.67C18.2486 42.7208 18.2513 42.7714 18.2562 42.8221C18.2613 42.8725 18.2689 42.9227 18.2788 42.9725C18.2886 43.0222 18.3011 43.0715 18.3158 43.1201C18.3307 43.1686 18.3477 43.2164 18.3673 43.2633C18.3867 43.3102 18.4085 43.3561 18.4324 43.4008C18.4564 43.4456 18.4824 43.4891 18.5108 43.5313C18.5389 43.5735 18.5692 43.6144 18.6014 43.6535C18.6336 43.6928 18.6677 43.7303 18.7037 43.7663C18.7396 43.8022 18.7771 43.8363 18.8164 43.8686C18.8558 43.9008 18.8964 43.931 18.9386 43.9592C18.981 43.9874 19.0245 44.0135 19.0693 44.0375C19.114 44.0615 19.1599 44.0831 19.2068 44.1025C19.2538 44.1221 19.3015 44.1391 19.3501 44.154C19.3988 44.1687 19.448 44.1811 19.4978 44.1909C19.5476 44.2009 19.5978 44.2085 19.6484 44.2136C19.6989 44.2185 19.7497 44.221 19.8005 44.2212H39.2063C39.2571 44.221 39.3079 44.2185 39.3583 44.2136C39.409 44.2085 39.4591 44.2009 39.5089 44.1909C39.5587 44.181 39.608 44.1687 39.6566 44.154C39.7052 44.1391 39.753 44.1221 39.7999 44.1025C39.8468 44.0831 39.8927 44.0613 39.9375 44.0375C39.9822 44.0135 40.0257 43.9874 40.0679 43.9592C40.1103 43.9308 40.151 43.9006 40.1903 43.8686C40.2295 43.8363 40.2671 43.8022 40.303 43.7663C40.339 43.7303 40.3731 43.6928 40.4053 43.6535C40.4376 43.6144 40.4678 43.5735 40.496 43.5313C40.5242 43.4891 40.5503 43.4456 40.5743 43.4008C40.5983 43.3561 40.62 43.3102 40.6394 43.2633C40.6589 43.2164 40.6761 43.1686 40.6908 43.1201C40.7056 43.0715 40.7179 43.0222 40.7279 42.9725C40.7379 42.9227 40.7454 42.8725 40.7503 42.8221C40.7554 42.7714 40.7579 42.7208 40.7581 42.67V14.4899C40.7579 14.4391 40.7554 14.3884 40.7503 14.338C40.7454 14.2873 40.7379 14.2372 40.7279 14.1874C40.7179 14.1376 40.7056 14.0883 40.6908 14.0399C40.6761 13.9913 40.6589 13.9435 40.6394 13.8966C40.62 13.8497 40.5983 13.8038 40.5743 13.759C40.5503 13.7143 40.5242 13.6708 40.496 13.6286C40.4678 13.5864 40.4376 13.5457 40.4053 13.5064C40.3731 13.4672 40.339 13.4296 40.303 13.3936C40.2671 13.3577 40.2295 13.3237 40.1903 13.2915C40.151 13.2592 40.1103 13.229 40.0679 13.2007C40.0257 13.1725 39.9822 13.1465 39.9375 13.1225C39.8927 13.0986 39.8468 13.0768 39.7999 13.0574C39.753 13.0378 39.7052 13.0207 39.6566 13.0059C39.608 12.9912 39.5587 12.9789 39.5089 12.9689C39.4591 12.959 39.409 12.9514 39.3583 12.9465C39.3079 12.9414 39.2571 12.9389 39.2063 12.9387H35.7073V15.2687C35.7073 15.3029 35.7039 15.3369 35.6971 15.3703C35.6906 15.4039 35.6806 15.4365 35.6676 15.468C35.6544 15.4996 35.6384 15.5296 35.6195 15.558C35.6004 15.5865 35.5788 15.6127 35.5547 15.637C35.5306 15.6611 35.5042 15.6827 35.4757 15.7016C35.4473 15.7207 35.4173 15.7367 35.3857 15.7497C35.354 15.7629 35.3216 15.7727 35.288 15.7794C35.2544 15.786 35.2205 15.7894 35.1864 15.7894H23.8203C23.7862 15.7894 23.7523 15.786 23.7187 15.7794C23.6851 15.7727 23.6526 15.7629 23.621 15.7497C23.5894 15.7367 23.5594 15.7207 23.531 15.7016C23.5025 15.6827 23.4762 15.6611 23.452 15.637C23.4279 15.6127 23.4063 15.5865 23.3872 15.558C23.3683 15.5296 23.3523 15.4996 23.3391 15.468C23.3261 15.4365 23.3162 15.4039 23.3096 15.3703C23.3028 15.3369 23.2995 15.3029 23.2995 15.2687V12.9387H19.8005Z" fill="#868889"/>
<path d="M38.0613 21.8005H26.6039C26.5696 21.8005 26.5359 21.7972 26.5023 21.7904C26.4687 21.7838 26.4361 21.7739 26.4046 21.7609C26.373 21.7477 26.3429 21.7317 26.3146 21.7128C26.2861 21.6937 26.2597 21.6721 26.2356 21.6479C26.2115 21.6238 26.1899 21.5975 26.1708 21.5691C26.1519 21.5406 26.1358 21.5107 26.1227 21.4792C26.1097 21.4474 26.0997 21.415 26.0931 21.3814C26.0864 21.3478 26.083 21.3141 26.083 21.2798C26.083 21.2457 26.0864 21.2118 26.0931 21.1782C26.0997 21.1448 26.1097 21.1122 26.1227 21.0807C26.1358 21.0491 26.1519 21.019 26.1708 20.9905C26.1899 20.9622 26.2115 20.9358 26.2356 20.9117C26.2597 20.8876 26.2861 20.866 26.3146 20.847C26.3429 20.828 26.373 20.8119 26.4046 20.7988C26.4361 20.7858 26.4687 20.7758 26.5023 20.7692C26.5359 20.7625 26.5696 20.7593 26.6039 20.7593H38.0613C38.0954 20.7593 38.1293 20.7625 38.1629 20.7692C38.1965 20.7758 38.2289 20.7858 38.2606 20.7988C38.2922 20.8119 38.3222 20.828 38.3506 20.847C38.3791 20.866 38.4054 20.8876 38.4296 20.9117C38.4537 20.9358 38.4753 20.9622 38.4944 20.9907C38.5133 21.019 38.5293 21.0491 38.5425 21.0807C38.5555 21.1122 38.5654 21.1448 38.572 21.1782C38.5788 21.2118 38.5821 21.2457 38.5821 21.2798C38.5821 21.3141 38.5788 21.3478 38.572 21.3814C38.5654 21.415 38.5555 21.4474 38.5425 21.4792C38.5293 21.5107 38.5133 21.5406 38.4944 21.5691C38.4753 21.5975 38.4537 21.6238 38.4296 21.6479C38.4054 21.6721 38.3791 21.6937 38.3506 21.7128C38.3222 21.7317 38.2922 21.7477 38.2606 21.7609C38.229 21.7739 38.1965 21.7838 38.1629 21.7904C38.1293 21.7972 38.0954 21.8005 38.0613 21.8005Z" fill="#868889"/>
<path d="M22.115 22.4198C22.046 22.42 21.9795 22.4068 21.9157 22.3803C21.8519 22.3538 21.7957 22.3162 21.7469 22.2673L20.5767 21.0977C20.5527 21.0734 20.5313 21.0471 20.5124 21.0187C20.4936 20.9904 20.4776 20.9603 20.4648 20.9288C20.4518 20.8972 20.442 20.8648 20.4354 20.8314C20.4288 20.7978 20.4256 20.764 20.4258 20.7299C20.4258 20.6958 20.4292 20.6621 20.4359 20.6287C20.4427 20.5952 20.4525 20.5628 20.4656 20.5314C20.4786 20.4999 20.4947 20.47 20.5137 20.4416C20.5326 20.4133 20.5542 20.3871 20.5784 20.363C20.6023 20.3389 20.6287 20.3174 20.657 20.2983C20.6854 20.2794 20.7153 20.2634 20.7467 20.2504C20.7782 20.2372 20.8106 20.2275 20.844 20.2207C20.8776 20.2139 20.9114 20.2106 20.9455 20.2106C20.9796 20.2104 21.0133 20.2136 21.0468 20.2202C21.0802 20.2268 21.1128 20.2366 21.1443 20.2496C21.1759 20.2624 21.2058 20.2783 21.2343 20.2972C21.2626 20.3159 21.289 20.3373 21.3133 20.3615L22.115 21.1629L24.3543 18.9247C24.3785 18.9004 24.4048 18.8787 24.4332 18.8594C24.4617 18.8403 24.4917 18.8241 24.5233 18.8108C24.5549 18.7976 24.5876 18.7877 24.6212 18.7809C24.6548 18.774 24.6887 18.7706 24.723 18.7706C24.7574 18.7705 24.7913 18.7738 24.8249 18.7804C24.8587 18.787 24.8913 18.797 24.923 18.81C24.9547 18.8231 24.9848 18.8392 25.0133 18.8582C25.0418 18.8771 25.0683 18.8989 25.0925 18.9231C25.1168 18.9474 25.1384 18.9737 25.1574 19.0022C25.1765 19.0307 25.1925 19.0608 25.2055 19.0925C25.2187 19.1242 25.2285 19.1568 25.2352 19.1904C25.2418 19.2242 25.2452 19.2581 25.245 19.2924C25.245 19.3266 25.2415 19.3606 25.2347 19.3941C25.228 19.4277 25.218 19.4605 25.2047 19.492C25.1915 19.5236 25.1753 19.5536 25.1561 19.5822C25.137 19.6105 25.1152 19.6369 25.0909 19.661L22.4833 22.2674C22.4345 22.3162 22.3783 22.3538 22.3145 22.3803C22.2506 22.4067 22.1842 22.4198 22.115 22.4198Z" fill="#868889"/>
<path d="M38.0613 27.3474H26.6039C26.5696 27.3474 26.5359 27.3442 26.5023 27.3375C26.4687 27.3307 26.4361 27.3209 26.4046 27.3077C26.373 27.2947 26.3429 27.2787 26.3146 27.2596C26.2861 27.2407 26.2597 27.2191 26.2356 27.195C26.2115 27.1709 26.1899 27.1445 26.1708 27.116C26.1519 27.0876 26.1358 27.0576 26.1227 27.026C26.1097 26.9945 26.0997 26.9619 26.0931 26.9285C26.0864 26.8949 26.083 26.861 26.083 26.8269C26.083 26.7926 26.0864 26.7588 26.0931 26.7253C26.0997 26.6917 26.1097 26.6593 26.1227 26.6275C26.1358 26.596 26.1519 26.5661 26.1708 26.5376C26.1899 26.5092 26.2115 26.4829 26.2356 26.4587C26.2597 26.4344 26.2861 26.413 26.3146 26.3939C26.3429 26.375 26.373 26.359 26.4046 26.3458C26.4361 26.3328 26.4687 26.3229 26.5023 26.3163C26.5359 26.3095 26.5696 26.3062 26.6039 26.3062H38.0613C38.0954 26.3062 38.1293 26.3095 38.1629 26.3163C38.1965 26.3229 38.2289 26.3328 38.2606 26.3458C38.2922 26.359 38.3222 26.375 38.3506 26.3939C38.3791 26.413 38.4054 26.4344 38.4296 26.4587C38.4537 26.4829 38.4753 26.5092 38.4944 26.5376C38.5133 26.5661 38.5293 26.596 38.5425 26.6275C38.5555 26.6593 38.5654 26.6917 38.572 26.7253C38.5788 26.7588 38.5821 26.7926 38.5821 26.8269C38.5821 26.861 38.5788 26.8949 38.572 26.9285C38.5654 26.9619 38.5555 26.9945 38.5425 27.026C38.5293 27.0576 38.5133 27.0876 38.4944 27.116C38.4753 27.1445 38.4537 27.1709 38.4296 27.195C38.4054 27.2191 38.3791 27.2407 38.3506 27.2596C38.3222 27.2787 38.2922 27.2947 38.2606 27.3077C38.229 27.3209 38.1965 27.3307 38.1629 27.3375C38.1293 27.3442 38.0954 27.3474 38.0613 27.3474Z" fill="#868889"/>
<path d="M22.115 27.9668C22.046 27.9668 21.9795 27.9537 21.9157 27.9272C21.8519 27.9008 21.7957 27.8632 21.7469 27.8142L20.5767 26.6445C20.5527 26.6204 20.5313 26.5941 20.5124 26.5657C20.4936 26.5372 20.4776 26.5073 20.4648 26.4758C20.4518 26.4442 20.442 26.4116 20.4354 26.3782C20.4288 26.3448 20.4256 26.311 20.4258 26.2769C20.4258 26.2428 20.4292 26.2091 20.4359 26.1756C20.4427 26.1422 20.4525 26.1098 20.4656 26.0783C20.4786 26.0469 20.4947 26.017 20.5137 25.9886C20.5326 25.9603 20.5542 25.9341 20.5784 25.91C20.6023 25.8858 20.6287 25.8642 20.657 25.8453C20.6854 25.8264 20.7153 25.8104 20.7467 25.7972C20.7782 25.7842 20.8106 25.7743 20.844 25.7677C20.8776 25.7609 20.9114 25.7576 20.9455 25.7574C20.9796 25.7574 21.0133 25.7606 21.0468 25.7672C21.0802 25.7738 21.1128 25.7835 21.1443 25.7964C21.1759 25.8094 21.2059 25.8252 21.2343 25.8441C21.2626 25.8629 21.289 25.8843 21.3133 25.9083L22.115 26.7097L24.3542 24.4714C24.3783 24.4472 24.4046 24.4256 24.4332 24.4067C24.4615 24.3877 24.4916 24.3716 24.5231 24.3586C24.5549 24.3455 24.5874 24.3357 24.6209 24.3289C24.6544 24.3223 24.6884 24.319 24.7225 24.319C24.7567 24.319 24.7907 24.3223 24.8242 24.3289C24.8577 24.3357 24.8902 24.3455 24.922 24.3586C24.9535 24.3716 24.9836 24.3877 25.0119 24.4067C25.0405 24.4256 25.0668 24.4472 25.0909 24.4716C25.1151 24.4957 25.1367 24.522 25.1557 24.5504C25.1747 24.5789 25.1907 24.6088 25.2039 24.6403C25.2169 24.6721 25.2268 24.7047 25.2334 24.7381C25.2401 24.7717 25.2435 24.8054 25.2435 24.8397C25.2435 24.8739 25.2401 24.9077 25.2334 24.9413C25.2268 24.9749 25.2169 25.0073 25.2039 25.039C25.1907 25.0706 25.1747 25.1006 25.1556 25.129C25.1367 25.1573 25.1151 25.1837 25.0909 25.2078L22.4833 27.8142C22.4345 27.8632 22.3783 27.9008 22.3144 27.9273C22.2506 27.9537 22.1842 27.9668 22.115 27.9668Z" fill="#868889"/>
<path d="M38.0613 32.8945H26.6039C26.5696 32.8945 26.5359 32.8912 26.5023 32.8844C26.4687 32.8778 26.4361 32.8679 26.4046 32.8549C26.373 32.8417 26.3429 32.8257 26.3146 32.8068C26.2861 32.7877 26.2597 32.7661 26.2356 32.7419C26.2115 32.7178 26.1899 32.6915 26.1708 32.6631C26.1519 32.6346 26.1358 32.6047 26.1227 32.5732C26.1097 32.5414 26.0997 32.509 26.0931 32.4754C26.0864 32.4418 26.083 32.4081 26.083 32.3738C26.083 32.3397 26.0864 32.3058 26.0931 32.2722C26.0997 32.2388 26.1097 32.2062 26.1227 32.1746C26.1358 32.1431 26.1519 32.113 26.1708 32.0847C26.1899 32.0562 26.2115 32.0298 26.2356 32.0057C26.2597 31.9816 26.2861 31.9599 26.3146 31.9409C26.3429 31.922 26.373 31.9059 26.4046 31.8928C26.4361 31.8798 26.4687 31.8698 26.5023 31.8632C26.5359 31.8565 26.5696 31.8533 26.6039 31.8533H38.0613C38.0954 31.8533 38.1293 31.8565 38.1629 31.8632C38.1965 31.8698 38.2289 31.8798 38.2606 31.8928C38.2922 31.9059 38.3222 31.922 38.3506 31.941C38.3791 31.9599 38.4054 31.9816 38.4296 32.0057C38.4537 32.0298 38.4753 32.0562 38.4944 32.0847C38.5133 32.113 38.5293 32.1431 38.5425 32.1746C38.5555 32.2062 38.5654 32.2388 38.572 32.2722C38.5788 32.3058 38.5821 32.3397 38.5821 32.3738C38.5821 32.4081 38.5788 32.4418 38.572 32.4754C38.5654 32.509 38.5555 32.5414 38.5425 32.5732C38.5293 32.6047 38.5133 32.6346 38.4944 32.6631C38.4753 32.6915 38.4537 32.7178 38.4296 32.7419C38.4054 32.7661 38.3791 32.7877 38.3506 32.8068C38.3222 32.8257 38.2922 32.8417 38.2606 32.8549C38.229 32.8679 38.1965 32.8778 38.1629 32.8844C38.1293 32.8912 38.0954 32.8945 38.0613 32.8945Z" fill="#868889"/>
<path d="M22.1152 33.5136C22.0462 33.5137 21.9797 33.5006 21.9159 33.4741C21.8521 33.4477 21.7959 33.4101 21.7471 33.3611L20.5769 32.1914C20.5533 32.1671 20.5322 32.1408 20.5138 32.1124C20.4954 32.0839 20.4797 32.054 20.4672 32.0226C20.4545 31.9913 20.4451 31.9588 20.4387 31.9256C20.4324 31.8923 20.4294 31.8588 20.4297 31.8248C20.4299 31.7909 20.4334 31.7575 20.4402 31.7242C20.4469 31.6911 20.4569 31.6589 20.4701 31.6277C20.4831 31.5963 20.4991 31.5667 20.518 31.5386C20.5369 31.5104 20.5583 31.4844 20.5823 31.4604C20.6063 31.4364 20.6323 31.415 20.6604 31.3963C20.6886 31.3774 20.7183 31.3613 20.7496 31.3483C20.7808 31.3353 20.813 31.3254 20.8463 31.3186C20.8795 31.3119 20.913 31.3083 20.9469 31.308C20.9808 31.3078 21.0144 31.3109 21.0476 31.3171C21.0809 31.3235 21.1133 31.333 21.1447 31.3456C21.1763 31.3583 21.2061 31.3738 21.2345 31.3922C21.2629 31.4108 21.2894 31.4317 21.3135 31.4553L22.1152 32.2568L24.3546 30.0185C24.3787 29.9945 24.405 29.973 24.4335 29.9543C24.4619 29.9354 24.4919 29.9195 24.5235 29.9065C24.5551 29.8937 24.5875 29.8839 24.6209 29.8773C24.6545 29.8708 24.6882 29.8676 24.7223 29.8676C24.7564 29.8677 24.7902 29.8711 24.8236 29.8778C24.857 29.8844 24.8894 29.8944 24.921 29.9074C24.9526 29.9206 24.9824 29.9366 25.0108 29.9555C25.0392 29.9744 25.0653 29.996 25.0895 30.0201C25.1136 30.0443 25.135 30.0704 25.1541 30.0988C25.173 30.1272 25.189 30.157 25.2022 30.1884C25.2152 30.22 25.2252 30.2524 25.2319 30.2858C25.2385 30.3192 25.2419 30.353 25.242 30.3871C25.242 30.4212 25.2388 30.4549 25.2323 30.4884C25.2257 30.5218 25.2161 30.5544 25.2031 30.5859C25.1901 30.6175 25.1742 30.6474 25.1553 30.6759C25.1366 30.7042 25.1151 30.7306 25.0911 30.7547L22.4835 33.3611C22.4348 33.4101 22.3785 33.4477 22.3147 33.4741C22.2508 33.5006 22.1844 33.5137 22.1152 33.5136Z" fill="#868889"/>
<path d="M38.0613 38.4414H26.6039C26.5696 38.4414 26.5359 38.438 26.5023 38.4314C26.4687 38.4247 26.4361 38.4149 26.4046 38.4017C26.373 38.3887 26.3429 38.3727 26.3146 38.3536C26.2861 38.3347 26.2597 38.3131 26.2356 38.289C26.2115 38.2649 26.1899 38.2385 26.1708 38.21C26.1519 38.1816 26.1358 38.1516 26.1227 38.12C26.1097 38.0885 26.0997 38.0559 26.0931 38.0223C26.0864 37.9889 26.083 37.955 26.083 37.9209C26.083 37.8866 26.0864 37.8528 26.0931 37.8192C26.0997 37.7857 26.1097 37.7531 26.1227 37.7215C26.1358 37.69 26.1519 37.6599 26.1708 37.6316C26.1899 37.6032 26.2115 37.5769 26.2356 37.5527C26.2597 37.5284 26.2861 37.507 26.3146 37.4879C26.3429 37.469 26.373 37.453 26.4046 37.4398C26.4361 37.4268 26.4687 37.4169 26.5023 37.4103C26.5359 37.4035 26.5696 37.4001 26.6039 37.4001H38.0613C38.0954 37.4001 38.1293 37.4035 38.1629 37.4103C38.1965 37.4169 38.2289 37.4268 38.2606 37.4398C38.2922 37.453 38.3222 37.469 38.3506 37.4879C38.3791 37.507 38.4054 37.5284 38.4296 37.5527C38.4537 37.5769 38.4753 37.6032 38.4944 37.6316C38.5133 37.6599 38.5293 37.69 38.5425 37.7215C38.5555 37.7531 38.5654 37.7857 38.572 37.8192C38.5788 37.8528 38.5821 37.8866 38.5821 37.9209C38.5821 37.955 38.5788 37.9889 38.572 38.0223C38.5654 38.0559 38.5555 38.0885 38.5425 38.12C38.5293 38.1516 38.5133 38.1816 38.4944 38.21C38.4753 38.2385 38.4537 38.2649 38.4296 38.289C38.4054 38.3131 38.3791 38.3347 38.3506 38.3536C38.3222 38.3727 38.2922 38.3887 38.2606 38.4017C38.229 38.4149 38.1965 38.4247 38.1629 38.4314C38.1293 38.438 38.0954 38.4414 38.0613 38.4414Z" fill="#868889"/>
<path d="M22.1151 39.0608C22.0461 39.0608 21.9796 39.0476 21.9158 39.0213C21.852 38.9948 21.7958 38.9572 21.747 38.9082L20.5768 37.7385C20.5525 37.7144 20.5307 37.6882 20.5116 37.6597C20.4924 37.6313 20.4762 37.6013 20.463 37.5697C20.4499 37.538 20.4399 37.5054 20.4331 37.4718C20.4264 37.4382 20.4229 37.4043 20.4229 37.37C20.4229 37.3358 20.4261 37.3019 20.4326 37.2683C20.4394 37.2347 20.4492 37.2019 20.4623 37.1702C20.4753 37.1386 20.4914 37.1086 20.5105 37.0801C20.5295 37.0515 20.5511 37.0252 20.5754 37.0009C20.5996 36.9768 20.6261 36.955 20.6546 36.9361C20.683 36.917 20.7132 36.901 20.7447 36.8878C20.7765 36.8748 20.8092 36.8649 20.8428 36.8583C20.8764 36.8517 20.9103 36.8483 20.9446 36.8485C20.979 36.8485 21.0129 36.8519 21.0465 36.8586C21.0801 36.8654 21.1127 36.8755 21.1444 36.8887C21.176 36.9018 21.206 36.918 21.2344 36.9371C21.2629 36.9562 21.2892 36.978 21.3134 37.0023L22.1151 37.8037L24.3543 35.5655C24.3784 35.5411 24.4047 35.5193 24.4331 35.5002C24.4616 35.481 24.4917 35.4649 24.5232 35.4516C24.555 35.4384 24.5875 35.4285 24.6211 35.4216C24.6549 35.4148 24.6888 35.4114 24.7231 35.4113C24.7573 35.4113 24.7913 35.4145 24.825 35.4212C24.8586 35.4278 24.8914 35.4376 24.9229 35.4508C24.9547 35.4637 24.9849 35.48 25.0134 35.4989C25.0419 35.5179 25.0683 35.5395 25.0926 35.5638C25.1167 35.5881 25.1385 35.6145 25.1574 35.643C25.1764 35.6715 25.1925 35.7016 25.2056 35.7333C25.2186 35.7649 25.2286 35.7976 25.2352 35.8312C25.2418 35.8648 25.2451 35.8989 25.245 35.9331C25.245 35.9674 25.2416 36.0013 25.2347 36.0349C25.2279 36.0685 25.218 36.1011 25.2048 36.1328C25.1915 36.1644 25.1753 36.1944 25.1562 36.2228C25.1369 36.2513 25.1152 36.2776 25.0909 36.3018L22.4834 38.9082C22.4346 38.957 22.3783 38.9948 22.3145 39.0211C22.2507 39.0476 22.1843 39.0608 22.1151 39.0608Z" fill="#868889"/>
</g>
<defs>
<clipPath id="clip0_385_1210">
<rect width="35" height="35" fill="white" transform="translate(12 10.2625)"/>
</clipPath>
</defs>
</svg>
