<svg width="28" height="19" viewBox="0 0 28 19" fill="none" xmlns="http://www.w3.org/2000/svg">
<path d="M24.9491 0.531372H3.56857C2.01794 0.531372 0.755371 1.79581 0.755371 3.34877V15.7452C0.755371 17.2981 2.01794 18.5625 3.56857 18.5625H24.949C26.4996 18.5625 27.7622 17.2981 27.7622 15.7452V3.34877C27.7623 1.79581 26.4997 0.531372 24.9491 0.531372ZM26.637 15.7451C26.637 16.6772 25.8797 17.4356 24.9491 17.4356H3.56857C2.63794 17.4356 1.88064 16.6772 1.88064 15.7451V3.34877C1.88064 2.41677 2.63794 1.65835 3.56857 1.65835H24.949C25.8796 1.65835 26.6369 2.41677 26.6369 3.34877V15.7451H26.637Z" fill="#868889"/>
<path d="M27.2003 3.9126H1.31876C1.00819 3.9126 0.756104 4.16505 0.756104 4.47609V7.85693C0.756104 8.16796 1.00819 8.42042 1.31876 8.42042H27.2004C27.511 8.42042 27.7631 8.16796 27.7631 7.85693V4.47609C27.763 4.16505 27.5109 3.9126 27.2003 3.9126ZM26.6377 7.29344H1.88137V5.03953H26.6377V7.29344H26.6377Z" fill="#868889"/>
<path d="M11.4462 11.8013H4.6945C4.38392 11.8013 4.13184 12.0537 4.13184 12.3648C4.13184 12.6758 4.38392 12.9282 4.6945 12.9282H11.4462C11.7568 12.9282 12.0089 12.6757 12.0089 12.3647C12.0089 12.0537 11.7568 11.8013 11.4462 11.8013Z" fill="#868889"/>
<path d="M11.4462 14.0551H4.6945C4.38392 14.0551 4.13184 14.3075 4.13184 14.6185C4.13184 14.9296 4.38392 15.182 4.6945 15.182H11.4462C11.7568 15.182 12.0089 14.9296 12.0089 14.6185C12.0088 14.3075 11.7568 14.0551 11.4462 14.0551Z" fill="#868889"/>
<path d="M22.6989 10.6742H21.5737C20.643 10.6742 19.8857 11.4326 19.8857 12.3646V13.4915C19.8857 14.4235 20.643 15.182 21.5737 15.182H22.6989C23.6296 15.182 24.3869 14.4235 24.3869 13.4915V12.3646C24.3869 11.4327 23.6296 10.6742 22.6989 10.6742ZM23.2616 13.4916C23.2616 13.8026 23.0095 14.0551 22.6989 14.0551H21.5737C21.2631 14.0551 21.011 13.8026 21.011 13.4916V12.3647C21.011 12.0536 21.2631 11.8012 21.5737 11.8012H22.6989C23.0095 11.8012 23.2616 12.0536 23.2616 12.3647V13.4916Z" fill="#868889"/>
</svg>
