<svg width="26" height="26" viewBox="0 0 26 26" fill="none" xmlns="http://www.w3.org/2000/svg">
<path d="M21.591 3.7631C19.2369 1.40556 16.1069 0.107178 12.7777 0.107178C9.44841 0.107178 6.31858 1.40556 3.96451 3.7631C1.61044 6.12065 0.313965 9.25509 0.313965 12.5893C0.313965 15.9234 1.61044 19.058 3.96451 21.4155C6.31858 23.7731 9.44841 25.0715 12.7777 25.0715C16.1069 25.0715 19.2369 23.7731 21.591 21.4155C23.945 19.058 25.2415 15.9234 25.2415 12.5893C25.2415 9.25509 23.945 6.12065 21.591 3.7631ZM6.56239 21.6772C7.08368 18.6714 9.68461 16.4542 12.7777 16.4542C15.871 16.4542 18.4718 18.6714 18.9931 21.6772C17.2234 22.8949 15.0824 23.6087 12.7777 23.6087C10.4731 23.6087 8.33204 22.8949 6.56239 21.6772ZM8.81472 11.0226C8.81472 8.83397 10.5925 7.05372 12.7777 7.05372C14.9629 7.05372 16.7407 8.83416 16.7407 11.0226C16.7407 13.211 14.9629 14.9914 12.7777 14.9914C10.5925 14.9914 8.81472 13.211 8.81472 11.0226ZM20.2582 20.6626C19.8651 19.2633 19.0844 17.9937 17.9901 17.002C17.3187 16.3934 16.5546 15.9133 15.733 15.5748C17.2179 14.6048 18.2015 12.9266 18.2015 11.0226C18.2015 8.02756 15.7683 5.59097 12.7777 5.59097C9.78712 5.59097 7.35412 8.02756 7.35412 11.0226C7.35412 12.9266 8.33774 14.6048 9.82249 15.5748C9.0011 15.9133 8.23676 16.3932 7.56541 17.0018C6.4713 17.9935 5.69041 19.2631 5.2973 20.6624C3.13208 18.6487 1.77456 15.775 1.77456 12.5893C1.77456 6.51319 6.71055 1.56993 12.7777 1.56993C18.8449 1.56993 23.7809 6.51319 23.7809 12.5893C23.7809 15.7752 22.4234 18.6489 20.2582 20.6626Z" fill="#969696"/>
</svg>
