<svg width="25" height="33" viewBox="0 0 25 33" fill="none" xmlns="http://www.w3.org/2000/svg">
<path d="M20.341 22.7881H4.61495C3.44179 22.7881 2.4873 21.8347 2.4873 20.6628V9.48093C2.4873 9.07269 2.81862 8.7417 3.22736 8.7417C3.6361 8.7417 3.96741 9.07269 3.96741 9.48093V20.6628C3.96741 21.0194 4.25788 21.3096 4.61495 21.3096H20.341C20.6981 21.3096 20.9886 21.0194 20.9886 20.6628V9.48093C20.9886 9.07269 21.3199 8.7417 21.7286 8.7417C22.1374 8.7417 22.4687 9.07269 22.4687 9.48093V20.6628C22.4687 21.8346 21.5143 22.7881 20.341 22.7881Z" fill="#A0A3B1"/>
<path d="M23.5788 12.0679C23.3894 12.0679 23.2 11.9958 23.0555 11.8514L13.8516 2.65778C13.0942 1.90117 11.8618 1.90117 11.1044 2.65778L1.90056 11.8514C1.61157 12.1402 1.14297 12.1402 0.853984 11.8514C0.564948 11.5628 0.564948 11.0947 0.853984 10.806L10.0578 1.61232C11.3923 0.279293 13.5638 0.279293 14.8982 1.61232L24.102 10.806C24.3911 11.0947 24.3911 11.5627 24.102 11.8514C23.9576 11.9958 23.7682 12.0679 23.5788 12.0679Z" fill="#A0A3B1"/>
<path d="M15.4383 22.788H9.51788C9.10914 22.788 8.77783 22.457 8.77783 22.0488V15.4881C8.77783 14.2143 9.81529 13.178 11.0905 13.178H13.8657C15.1409 13.178 16.1783 14.2143 16.1783 15.4881V22.0488C16.1783 22.457 15.847 22.788 15.4383 22.788ZM10.2579 21.3095H14.6982V15.4881C14.6982 15.0295 14.3247 14.6564 13.8657 14.6564H11.0905C10.6314 14.6564 10.2579 15.0295 10.2579 15.4881V21.3095Z" fill="#A0A3B1"/>
<path d="M2.85818 31.2625V26.1715H3.47465V28.4386H6.18914V26.1715H6.80562V31.2625H6.18914V28.9855H3.47465V31.2625H2.85818ZM9.51141 31.342C9.16671 31.342 8.86427 31.26 8.60409 31.0959C8.34557 30.9318 8.14339 30.7023 7.99756 30.4073C7.85338 30.1124 7.78129 29.7677 7.78129 29.3732C7.78129 28.9755 7.85338 28.6283 7.99756 28.3317C8.14339 28.0351 8.34557 27.8047 8.60409 27.6406C8.86427 27.4766 9.16671 27.3946 9.51141 27.3946C9.85611 27.3946 10.1577 27.4766 10.4162 27.6406C10.6764 27.8047 10.8786 28.0351 11.0228 28.3317C11.1686 28.6283 11.2415 28.9755 11.2415 29.3732C11.2415 29.7677 11.1686 30.1124 11.0228 30.4073C10.8786 30.7023 10.6764 30.9318 10.4162 31.0959C10.1577 31.26 9.85611 31.342 9.51141 31.342ZM9.51141 30.815C9.77325 30.815 9.98868 30.7479 10.1577 30.6137C10.3267 30.4794 10.4519 30.3029 10.5331 30.0842C10.6143 29.8654 10.6549 29.6285 10.6549 29.3732C10.6549 29.118 10.6143 28.8802 10.5331 28.6598C10.4519 28.4394 10.3267 28.2613 10.1577 28.1254C9.98868 27.9895 9.77325 27.9215 9.51141 27.9215C9.24957 27.9215 9.03414 27.9895 8.8651 28.1254C8.69607 28.2613 8.57095 28.4394 8.48975 28.6598C8.40854 28.8802 8.36794 29.118 8.36794 29.3732C8.36794 29.6285 8.40854 29.8654 8.48975 30.0842C8.57095 30.3029 8.69607 30.4794 8.8651 30.6137C9.03414 30.7479 9.24957 30.815 9.51141 30.815ZM12.137 31.2625V27.4443H12.7038V28.0409H12.7535C12.8331 27.837 12.9615 27.6788 13.1388 27.5661C13.3161 27.4517 13.5291 27.3946 13.7777 27.3946C14.0295 27.3946 14.2392 27.4517 14.4066 27.5661C14.5756 27.6788 14.7073 27.837 14.8018 28.0409H14.8416C14.9393 27.8437 15.086 27.687 15.2816 27.571C15.4771 27.4534 15.7116 27.3946 15.985 27.3946C16.3264 27.3946 16.6057 27.5014 16.8228 27.7152C17.0398 27.9273 17.1484 28.258 17.1484 28.7071V31.2625H16.5617V28.7071C16.5617 28.4253 16.4847 28.224 16.3306 28.103C16.1764 27.982 15.995 27.9215 15.7862 27.9215C15.5177 27.9215 15.3097 28.0027 15.1622 28.1652C15.0148 28.3259 14.941 28.5297 14.941 28.7767V31.2625H14.3444V28.6474C14.3444 28.4303 14.274 28.2555 14.1331 28.1229C13.9923 27.9887 13.8108 27.9215 13.5887 27.9215C13.4363 27.9215 13.2938 27.9621 13.1612 28.0433C13.0303 28.1245 12.9242 28.2372 12.843 28.3814C12.7635 28.5239 12.7237 28.6888 12.7237 28.8761V31.2625H12.137ZM19.8219 31.342C19.454 31.342 19.1366 31.2608 18.8698 31.0984C18.6047 30.9343 18.4 30.7056 18.2558 30.4123C18.1133 30.1173 18.042 29.7743 18.042 29.3832C18.042 28.9921 18.1133 28.6474 18.2558 28.3491C18.4 28.0491 18.6005 27.8155 18.8574 27.6481C19.1159 27.4791 19.4175 27.3946 19.7622 27.3946C19.9611 27.3946 20.1574 27.4277 20.3513 27.494C20.5452 27.5603 20.7217 27.668 20.8808 27.8171C21.0399 27.9646 21.1667 28.1602 21.2611 28.4038C21.3556 28.6474 21.4028 28.9473 21.4028 29.3036V29.5522H18.4597V29.0451H20.8062C20.8062 28.8297 20.7632 28.6375 20.677 28.4684C20.5925 28.2994 20.4715 28.166 20.3141 28.0682C20.1583 27.9704 19.9743 27.9215 19.7622 27.9215C19.5285 27.9215 19.3264 27.9795 19.1557 28.0955C18.9866 28.2099 18.8565 28.359 18.7654 28.543C18.6743 28.7269 18.6287 28.9241 18.6287 29.1346V29.4727C18.6287 29.761 18.6784 30.0055 18.7778 30.206C18.8789 30.4049 19.019 30.5565 19.1979 30.6609C19.3769 30.7636 19.5849 30.815 19.8219 30.815C19.976 30.815 20.1152 30.7935 20.2395 30.7504C20.3654 30.7056 20.474 30.6393 20.5651 30.5515C20.6563 30.462 20.7267 30.351 20.7764 30.2184L21.3432 30.3775C21.2835 30.5697 21.1833 30.7388 21.0424 30.8846C20.9015 31.0288 20.7275 31.1415 20.5204 31.2227C20.3132 31.3022 20.0804 31.342 19.8219 31.342Z" fill="#A0A3B1"/>
</svg>
