<svg width="430" height="90" viewBox="0 0 430 90" fill="none" xmlns="http://www.w3.org/2000/svg">
<rect y="21.7876" width="430" height="68.475" fill="white"/>
<path d="M248.473 33.2C248.473 51.5359 233.593 66.4 215.237 66.4C196.881 66.4 182 51.5359 182 33.2C182 14.8641 196.881 0 215.237 0C233.593 0 248.473 14.8641 248.473 33.2Z" fill="white"/>
<g filter="url(#filter0_d_394_1002)">
<ellipse cx="215.237" cy="34.2375" rx="29.0821" ry="29.05" fill="#81B622"/>
</g>
<g clip-path="url(#clip0_394_1002)">
<path d="M128.574 44.7364H121.43C121.409 44.7364 121.387 44.7342 121.366 44.7301C121.345 44.7258 121.324 44.7197 121.305 44.7114C121.285 44.7033 121.266 44.6932 121.248 44.6812C121.23 44.6693 121.214 44.6557 121.198 44.6405C121.183 44.6253 121.17 44.6088 121.158 44.5909C121.146 44.5731 121.136 44.5542 121.127 44.5343C121.119 44.5145 121.113 44.494 121.109 44.4729C121.105 44.4519 121.103 44.4306 121.103 44.4092V41.5889C121.103 41.5675 121.105 41.5462 121.109 41.525C121.113 41.504 121.119 41.4836 121.127 41.4637C121.136 41.4439 121.146 41.425 121.158 41.4071C121.17 41.3892 121.183 41.3727 121.198 41.3575C121.214 41.3424 121.23 41.3288 121.248 41.3168C121.266 41.3049 121.285 41.2948 121.305 41.2865C121.324 41.2784 121.345 41.2721 121.366 41.268C121.387 41.2637 121.409 41.2617 121.43 41.2617H128.574C128.596 41.2617 128.617 41.2637 128.638 41.268C128.659 41.2721 128.68 41.2784 128.7 41.2865C128.719 41.2948 128.738 41.3049 128.756 41.3168C128.774 41.3288 128.791 41.3424 128.806 41.3575C128.821 41.3727 128.835 41.3892 128.847 41.4071C128.858 41.425 128.869 41.4439 128.877 41.4637C128.885 41.4836 128.891 41.504 128.895 41.525C128.9 41.5462 128.902 41.5675 128.902 41.5889V44.4092C128.902 44.4306 128.9 44.4519 128.895 44.4729C128.891 44.494 128.885 44.5145 128.877 44.5343C128.869 44.5542 128.858 44.5731 128.847 44.5909C128.835 44.6088 128.821 44.6253 128.806 44.6405C128.791 44.6557 128.774 44.6693 128.756 44.6812C128.738 44.6932 128.719 44.7033 128.7 44.7114C128.68 44.7197 128.659 44.7258 128.638 44.7301C128.617 44.7342 128.596 44.7364 128.574 44.7364ZM121.757 44.0818H128.247V41.9162H121.757V44.0818Z" fill="#868889"/>
<path d="M131.101 63.2625H118.903C118.85 63.2624 118.796 63.2598 118.743 63.2545C118.69 63.2493 118.638 63.2413 118.585 63.2309C118.533 63.2204 118.481 63.2075 118.43 63.192C118.379 63.1764 118.329 63.1585 118.279 63.138C118.23 63.1176 118.182 63.0948 118.135 63.0695C118.088 63.0444 118.042 63.017 117.998 62.9873C117.953 62.9577 117.911 62.9259 117.869 62.892C117.828 62.8582 117.789 62.8225 117.751 62.7847C117.713 62.747 117.677 62.7076 117.644 62.6663C117.61 62.625 117.578 62.5823 117.548 62.5379C117.519 62.4936 117.491 62.4478 117.466 62.4008C117.441 62.3538 117.418 62.3057 117.398 62.2563C117.377 62.2071 117.359 62.1569 117.344 62.1059C117.328 62.0548 117.315 62.0032 117.305 61.9508C117.294 61.8985 117.286 61.8458 117.281 61.7927C117.276 61.7396 117.273 61.6864 117.273 61.633V43.9198C117.273 43.8664 117.276 43.8133 117.281 43.7601C117.286 43.7071 117.294 43.6544 117.305 43.6021C117.315 43.5497 117.328 43.4981 117.344 43.447C117.359 43.396 117.377 43.3458 117.398 43.2965C117.418 43.2473 117.441 43.1991 117.466 43.152C117.491 43.105 117.519 43.0593 117.548 43.0149C117.578 42.9706 117.61 42.9278 117.644 42.8865C117.677 42.8454 117.713 42.8059 117.751 42.7681C117.789 42.7304 117.828 42.6946 117.869 42.6608C117.911 42.6269 117.953 42.5952 117.998 42.5655C118.042 42.5359 118.088 42.5084 118.135 42.4833C118.182 42.4581 118.23 42.4353 118.279 42.4148C118.329 42.3944 118.379 42.3764 118.43 42.3609C118.481 42.3453 118.533 42.3324 118.585 42.3219C118.638 42.3115 118.69 42.3037 118.743 42.2983C118.796 42.293 118.85 42.2904 118.903 42.2903H121.43C121.451 42.2903 121.473 42.2924 121.494 42.2966C121.515 42.3008 121.535 42.307 121.555 42.3152C121.575 42.3235 121.594 42.3336 121.612 42.3455C121.63 42.3574 121.646 42.371 121.661 42.3862C121.677 42.4014 121.69 42.4179 121.702 42.4357C121.714 42.4537 121.724 42.4724 121.732 42.4923C121.741 42.5122 121.747 42.5326 121.751 42.5537C121.755 42.5748 121.757 42.5961 121.757 42.6176V44.0821H128.247V42.6176C128.247 42.5961 128.249 42.5748 128.253 42.5537C128.257 42.5326 128.264 42.5122 128.272 42.4923C128.28 42.4724 128.29 42.4537 128.302 42.4357C128.314 42.4179 128.328 42.4014 128.343 42.3862C128.358 42.371 128.374 42.3574 128.392 42.3455C128.41 42.3336 128.429 42.3235 128.449 42.3152C128.469 42.307 128.489 42.3008 128.51 42.2966C128.532 42.2924 128.553 42.2903 128.574 42.2903H131.101C131.154 42.2904 131.208 42.293 131.261 42.2983C131.314 42.3037 131.367 42.3115 131.419 42.3219C131.471 42.3324 131.523 42.3453 131.574 42.3609C131.625 42.3764 131.675 42.3945 131.725 42.4148C131.774 42.4353 131.822 42.4581 131.869 42.4833C131.916 42.5084 131.962 42.5359 132.006 42.5655C132.051 42.5952 132.093 42.6269 132.135 42.6608C132.176 42.6946 132.215 42.7304 132.253 42.7681C132.291 42.8059 132.327 42.8454 132.361 42.8865C132.394 42.9278 132.426 42.9706 132.456 43.0149C132.486 43.0593 132.513 43.105 132.538 43.1521C132.563 43.1991 132.586 43.2473 132.607 43.2965C132.627 43.3458 132.645 43.396 132.661 43.447C132.676 43.4981 132.689 43.5497 132.7 43.6021C132.71 43.6544 132.718 43.7071 132.723 43.7601C132.728 43.8133 132.731 43.8664 132.731 43.9198V61.6331C132.731 61.6865 132.728 61.7396 132.723 61.7928C132.718 61.8458 132.71 61.8986 132.7 61.9509C132.689 62.0032 132.676 62.0548 132.661 62.1059C132.645 62.1569 132.627 62.2071 132.607 62.2563C132.586 62.3057 132.563 62.3538 132.538 62.4008C132.513 62.4479 132.486 62.4936 132.456 62.5379C132.426 62.5823 132.394 62.6251 132.361 62.6663C132.327 62.7076 132.291 62.747 132.253 62.7848C132.215 62.8225 132.176 62.8582 132.135 62.892C132.093 62.926 132.051 62.9577 132.006 62.9873C131.962 63.017 131.916 63.0444 131.869 63.0695C131.822 63.0948 131.774 63.1176 131.725 63.138C131.675 63.1585 131.625 63.1764 131.574 63.192C131.523 63.2075 131.471 63.2204 131.419 63.2309C131.367 63.2413 131.314 63.2493 131.261 63.2545C131.208 63.2598 131.154 63.2624 131.101 63.2625ZM118.903 42.9448C118.871 42.9448 118.839 42.9464 118.808 42.9496C118.776 42.9527 118.744 42.9574 118.713 42.9637C118.682 42.9699 118.651 42.9777 118.62 42.987C118.589 42.9962 118.559 43.0071 118.53 43.0193C118.5 43.0315 118.472 43.0452 118.444 43.0602C118.415 43.0753 118.388 43.0916 118.361 43.1094C118.335 43.1272 118.309 43.1462 118.285 43.1664C118.26 43.1867 118.236 43.208 118.214 43.2306C118.191 43.2532 118.17 43.2769 118.149 43.3015C118.129 43.3262 118.11 43.3518 118.092 43.3783C118.075 43.4048 118.058 43.4322 118.043 43.4603C118.028 43.4885 118.014 43.5173 118.002 43.5468C117.99 43.5763 117.979 43.6063 117.97 43.6368C117.961 43.6674 117.953 43.6983 117.947 43.7296C117.94 43.7609 117.936 43.7924 117.932 43.8242C117.929 43.8559 117.928 43.8878 117.928 43.9197V61.633C117.928 61.6649 117.929 61.6968 117.932 61.7286C117.936 61.7603 117.94 61.7918 117.947 61.8231C117.953 61.8544 117.961 61.8854 117.97 61.916C117.979 61.9464 117.99 61.9764 118.002 62.0059C118.014 62.0354 118.028 62.0643 118.043 62.0924C118.058 62.1205 118.075 62.1479 118.092 62.1744C118.11 62.2009 118.129 62.2266 118.149 62.2512C118.17 62.276 118.191 62.2995 118.214 62.3221C118.236 62.3447 118.26 62.3661 118.285 62.3864C118.309 62.4067 118.335 62.4257 118.361 62.4434C118.388 62.4611 118.415 62.4775 118.444 62.4926C118.472 62.5077 118.5 62.5212 118.53 62.5334C118.559 62.5458 118.589 62.5565 118.62 62.5658C118.651 62.575 118.682 62.5829 118.713 62.589C118.744 62.5953 118.776 62.6001 118.808 62.6033C118.839 62.6063 118.871 62.6079 118.903 62.608H131.101C131.133 62.6079 131.165 62.6063 131.197 62.6033C131.228 62.6001 131.26 62.5953 131.291 62.589C131.323 62.5828 131.354 62.575 131.384 62.5658C131.415 62.5565 131.445 62.5458 131.474 62.5334C131.504 62.5212 131.533 62.5076 131.561 62.4926C131.589 62.4775 131.616 62.4611 131.643 62.4434C131.669 62.4255 131.695 62.4066 131.72 62.3864C131.744 62.3661 131.768 62.3447 131.79 62.3221C131.813 62.2995 131.834 62.276 131.855 62.2512C131.875 62.2266 131.894 62.2009 131.912 62.1744C131.929 62.1479 131.946 62.1205 131.961 62.0924C131.976 62.0643 131.99 62.0354 132.002 62.0059C132.014 61.9764 132.025 61.9464 132.034 61.916C132.043 61.8854 132.051 61.8544 132.057 61.8231C132.064 61.7918 132.069 61.7603 132.072 61.7286C132.075 61.6968 132.076 61.6649 132.076 61.633V43.9198C132.076 43.8879 132.075 43.856 132.072 43.8243C132.069 43.7925 132.064 43.761 132.057 43.7297C132.051 43.6984 132.043 43.6674 132.034 43.637C132.025 43.6064 132.014 43.5764 132.002 43.5469C131.99 43.5174 131.976 43.4885 131.961 43.4604C131.946 43.4323 131.929 43.4049 131.912 43.3784C131.894 43.3519 131.875 43.3263 131.855 43.3016C131.834 43.277 131.813 43.2533 131.79 43.2307C131.768 43.2081 131.744 43.1868 131.72 43.1665C131.695 43.1463 131.669 43.1273 131.643 43.1094C131.616 43.0917 131.589 43.0754 131.561 43.0603C131.533 43.0453 131.504 43.0316 131.474 43.0194C131.445 43.0071 131.415 42.9963 131.384 42.987C131.354 42.9778 131.323 42.97 131.291 42.9638C131.26 42.9575 131.228 42.9527 131.197 42.9497C131.165 42.9465 131.133 42.9449 131.101 42.9448H128.902V44.4093C128.902 44.4309 128.9 44.4522 128.895 44.4732C128.891 44.4943 128.885 44.5148 128.877 44.5346C128.868 44.5545 128.858 44.5734 128.847 44.5912C128.835 44.6091 128.821 44.6256 128.806 44.6408C128.791 44.656 128.774 44.6696 128.756 44.6815C128.738 44.6935 128.719 44.7035 128.7 44.7117C128.68 44.72 128.659 44.7261 128.638 44.7304C128.617 44.7345 128.596 44.7366 128.574 44.7366H121.43C121.408 44.7366 121.387 44.7345 121.366 44.7304C121.345 44.7261 121.324 44.72 121.305 44.7117C121.285 44.7035 121.266 44.6935 121.248 44.6815C121.23 44.6696 121.214 44.656 121.198 44.6408C121.183 44.6256 121.17 44.6091 121.158 44.5912C121.146 44.5734 121.136 44.5545 121.127 44.5346C121.119 44.5148 121.113 44.4943 121.109 44.4732C121.105 44.4522 121.102 44.4309 121.102 44.4093V42.9448H118.903Z" fill="#868889"/>
<path d="M130.381 48.5149H123.179C123.158 48.5149 123.137 48.5127 123.116 48.5085C123.094 48.5044 123.074 48.4981 123.054 48.4899C123.034 48.4816 123.015 48.4716 122.998 48.4597C122.98 48.4477 122.963 48.4341 122.948 48.4189C122.933 48.4038 122.919 48.3872 122.907 48.3694C122.895 48.3515 122.885 48.3327 122.877 48.3128C122.869 48.2929 122.863 48.2725 122.858 48.2514C122.854 48.2303 122.852 48.2091 122.852 48.1876C122.852 48.1661 122.854 48.1448 122.858 48.1237C122.863 48.1027 122.869 48.0822 122.877 48.0624C122.885 48.0425 122.895 48.0236 122.907 48.0057C122.919 47.9879 122.933 47.9713 122.948 47.9562C122.963 47.941 122.98 47.9274 122.998 47.9155C123.015 47.9035 123.034 47.8935 123.054 47.8852C123.074 47.877 123.094 47.8707 123.116 47.8666C123.137 47.8624 123.158 47.8604 123.179 47.8604H130.381C130.403 47.8604 130.424 47.8624 130.445 47.8666C130.466 47.8707 130.487 47.877 130.507 47.8852C130.526 47.8935 130.545 47.9035 130.563 47.9155C130.581 47.9274 130.598 47.941 130.613 47.9562C130.628 47.9713 130.641 47.9879 130.653 48.0058C130.665 48.0236 130.675 48.0425 130.684 48.0624C130.692 48.0822 130.698 48.1027 130.702 48.1237C130.707 48.1448 130.709 48.1661 130.709 48.1876C130.709 48.2091 130.707 48.2303 130.702 48.2514C130.698 48.2725 130.692 48.2929 130.684 48.3128C130.675 48.3327 130.665 48.3515 130.653 48.3694C130.641 48.3872 130.628 48.4038 130.613 48.4189C130.598 48.4341 130.581 48.4477 130.563 48.4597C130.545 48.4716 130.526 48.4816 130.507 48.4899C130.487 48.4981 130.466 48.5044 130.445 48.5085C130.424 48.5127 130.403 48.5149 130.381 48.5149Z" fill="#868889"/>
<path d="M120.358 48.9041C120.315 48.9043 120.273 48.896 120.233 48.8793C120.193 48.8627 120.157 48.839 120.127 48.8082L119.391 48.0731C119.376 48.0578 119.363 48.0413 119.351 48.0234C119.339 48.0056 119.329 47.9867 119.321 47.9669C119.313 47.9471 119.307 47.9267 119.302 47.9057C119.298 47.8846 119.296 47.8633 119.296 47.8419C119.296 47.8205 119.299 47.7993 119.303 47.7783C119.307 47.7572 119.313 47.7369 119.321 47.7171C119.33 47.6973 119.34 47.6785 119.352 47.6607C119.364 47.6429 119.377 47.6264 119.392 47.6113C119.407 47.5961 119.424 47.5826 119.442 47.5706C119.46 47.5587 119.478 47.5487 119.498 47.5405C119.518 47.5322 119.538 47.5261 119.559 47.5218C119.58 47.5176 119.602 47.5155 119.623 47.5155C119.644 47.5154 119.666 47.5174 119.687 47.5215C119.708 47.5256 119.728 47.5318 119.748 47.54C119.768 47.548 119.787 47.558 119.805 47.5699C119.822 47.5817 119.839 47.5951 119.854 47.6103L120.358 48.114L121.766 46.7072C121.781 46.6919 121.797 46.6783 121.815 46.6662C121.833 46.6542 121.852 46.644 121.872 46.6356C121.892 46.6273 121.912 46.6211 121.934 46.6168C121.955 46.6125 121.976 46.6104 121.997 46.6104C122.019 46.6102 122.04 46.6124 122.062 46.6165C122.083 46.6206 122.103 46.6269 122.123 46.6351C122.143 46.6434 122.162 46.6534 122.18 46.6654C122.198 46.6773 122.215 46.691 122.23 46.7062C122.245 46.7214 122.259 46.738 122.271 46.7559C122.283 46.7738 122.293 46.7927 122.301 46.8127C122.309 46.8326 122.315 46.8531 122.319 46.8742C122.324 46.8954 122.326 46.9168 122.326 46.9383C122.326 46.9598 122.323 46.9812 122.319 47.0023C122.315 47.0234 122.309 47.044 122.3 47.0638C122.292 47.0836 122.282 47.1025 122.27 47.1205C122.258 47.1383 122.244 47.1548 122.229 47.17L120.59 48.8083C120.559 48.839 120.524 48.8627 120.484 48.8793C120.443 48.8959 120.402 48.9041 120.358 48.9041Z" fill="#868889"/>
<path d="M130.381 52.0017H123.179C123.158 52.0017 123.137 51.9997 123.116 51.9954C123.094 51.9912 123.074 51.985 123.054 51.9767C123.034 51.9686 123.015 51.9585 122.998 51.9465C122.98 51.9346 122.963 51.921 122.948 51.9059C122.933 51.8907 122.919 51.8741 122.907 51.8562C122.895 51.8384 122.885 51.8195 122.877 51.7997C122.869 51.7798 122.863 51.7593 122.858 51.7383C122.854 51.7172 122.852 51.6959 122.852 51.6745C122.852 51.6529 122.854 51.6317 122.858 51.6106C122.863 51.5895 122.869 51.5691 122.877 51.5492C122.885 51.5293 122.895 51.5106 122.907 51.4926C122.919 51.4748 122.933 51.4583 122.948 51.4431C122.963 51.4278 122.98 51.4143 122.998 51.4023C123.015 51.3905 123.034 51.3804 123.054 51.3721C123.074 51.3639 123.094 51.3577 123.116 51.3535C123.137 51.3493 123.158 51.3472 123.179 51.3472H130.381C130.403 51.3472 130.424 51.3493 130.445 51.3535C130.466 51.3577 130.487 51.3639 130.507 51.3721C130.526 51.3804 130.545 51.3905 130.563 51.4023C130.581 51.4143 130.598 51.4278 130.613 51.4431C130.628 51.4583 130.641 51.4748 130.653 51.4926C130.665 51.5106 130.675 51.5293 130.684 51.5492C130.692 51.5691 130.698 51.5895 130.702 51.6106C130.707 51.6317 130.709 51.6529 130.709 51.6745C130.709 51.6959 130.707 51.7172 130.702 51.7383C130.698 51.7593 130.692 51.7798 130.684 51.7997C130.675 51.8195 130.665 51.8384 130.653 51.8562C130.641 51.8741 130.628 51.8907 130.613 51.9059C130.598 51.921 130.581 51.9346 130.563 51.9465C130.545 51.9585 130.526 51.9686 130.507 51.9767C130.487 51.985 130.466 51.9912 130.445 51.9954C130.424 51.9997 130.403 52.0017 130.381 52.0017Z" fill="#868889"/>
<path d="M120.358 52.3908C120.315 52.3908 120.273 52.3826 120.233 52.3659C120.193 52.3494 120.157 52.3257 120.127 52.2949L119.391 51.5597C119.376 51.5445 119.363 51.528 119.351 51.5101C119.339 51.4922 119.329 51.4734 119.321 51.4536C119.313 51.4338 119.307 51.4133 119.302 51.3923C119.298 51.3713 119.296 51.35 119.296 51.3286C119.296 51.3072 119.299 51.286 119.303 51.265C119.307 51.2439 119.313 51.2236 119.321 51.2037C119.33 51.184 119.34 51.1652 119.352 51.1474C119.364 51.1296 119.377 51.1131 119.392 51.098C119.407 51.0828 119.424 51.0692 119.442 51.0573C119.46 51.0454 119.478 51.0354 119.498 51.0271C119.518 51.0189 119.538 51.0127 119.559 51.0085C119.58 51.0043 119.602 51.0022 119.623 51.002C119.644 51.002 119.666 51.0041 119.687 51.0082C119.708 51.0123 119.728 51.0185 119.748 51.0266C119.768 51.0347 119.787 51.0447 119.805 51.0566C119.822 51.0684 119.839 51.0818 119.854 51.0969L120.358 51.6006L121.766 50.1937C121.781 50.1785 121.797 50.165 121.815 50.1531C121.833 50.1411 121.852 50.131 121.872 50.1228C121.892 50.1146 121.912 50.1084 121.933 50.1042C121.954 50.1 121.976 50.0979 121.997 50.0979C122.019 50.0979 122.04 50.1 122.061 50.1042C122.082 50.1084 122.103 50.1146 122.123 50.1228C122.142 50.131 122.161 50.1411 122.179 50.1531C122.197 50.165 122.214 50.1785 122.229 50.1938C122.244 50.209 122.258 50.2255 122.27 50.2434C122.281 50.2613 122.291 50.2801 122.3 50.2999C122.308 50.3199 122.314 50.3403 122.318 50.3613C122.323 50.3824 122.325 50.4037 122.325 50.4252C122.325 50.4467 122.323 50.468 122.318 50.4891C122.314 50.5102 122.308 50.5306 122.3 50.5505C122.291 50.5703 122.281 50.5892 122.269 50.6071C122.258 50.6249 122.244 50.6414 122.229 50.6566L120.59 52.2949C120.559 52.3257 120.524 52.3494 120.483 52.366C120.443 52.3826 120.402 52.3908 120.358 52.3908Z" fill="#868889"/>
<path d="M130.381 55.4882H123.179C123.158 55.4882 123.137 55.4861 123.116 55.4819C123.094 55.4777 123.074 55.4715 123.054 55.4633C123.034 55.455 123.015 55.445 122.998 55.4331C122.98 55.4211 122.963 55.4075 122.948 55.3923C122.933 55.3772 122.919 55.3606 122.907 55.3428C122.895 55.3249 122.885 55.3061 122.877 55.2862C122.869 55.2663 122.863 55.2459 122.858 55.2248C122.854 55.2037 122.852 55.1825 122.852 55.1609C122.852 55.1395 122.854 55.1182 122.858 55.0971C122.863 55.0761 122.869 55.0556 122.877 55.0357C122.885 55.0159 122.895 54.997 122.907 54.9792C122.919 54.9613 122.933 54.9447 122.948 54.9295C122.963 54.9144 122.98 54.9008 122.998 54.8888C123.015 54.8769 123.034 54.8668 123.054 54.8586C123.074 54.8504 123.094 54.8441 123.116 54.84C123.137 54.8358 123.158 54.8337 123.179 54.8337H130.381C130.403 54.8337 130.424 54.8358 130.445 54.84C130.466 54.8441 130.487 54.8504 130.507 54.8586C130.526 54.8668 130.545 54.8769 130.563 54.8889C130.581 54.9008 130.598 54.9144 130.613 54.9295C130.628 54.9447 130.641 54.9613 130.653 54.9792C130.665 54.997 130.675 55.0159 130.684 55.0357C130.692 55.0556 130.698 55.0761 130.702 55.0971C130.707 55.1182 130.709 55.1395 130.709 55.1609C130.709 55.1825 130.707 55.2037 130.702 55.2248C130.698 55.2459 130.692 55.2663 130.684 55.2862C130.675 55.3061 130.665 55.3249 130.653 55.3428C130.641 55.3606 130.628 55.3772 130.613 55.3923C130.598 55.4075 130.581 55.4211 130.563 55.4331C130.545 55.445 130.526 55.455 130.507 55.4633C130.487 55.4715 130.466 55.4777 130.445 55.4819C130.424 55.4861 130.403 55.4882 130.381 55.4882Z" fill="#868889"/>
<path d="M120.358 55.8775C120.315 55.8776 120.273 55.8693 120.233 55.8526C120.193 55.8361 120.158 55.8124 120.127 55.7817L119.391 55.0464C119.377 55.0311 119.363 55.0146 119.352 54.9968C119.34 54.9788 119.33 54.9601 119.322 54.9403C119.314 54.9206 119.308 54.9002 119.304 54.8793C119.301 54.8584 119.299 54.8373 119.299 54.816C119.299 54.7947 119.301 54.7736 119.305 54.7527C119.31 54.732 119.316 54.7117 119.324 54.6921C119.332 54.6723 119.342 54.6538 119.354 54.636C119.366 54.6183 119.38 54.602 119.395 54.5869C119.41 54.5719 119.426 54.5584 119.444 54.5466C119.462 54.5347 119.48 54.5246 119.5 54.5165C119.52 54.5083 119.54 54.502 119.561 54.4978C119.582 54.4936 119.603 54.4913 119.624 54.4911C119.645 54.491 119.666 54.4929 119.687 54.4968C119.708 54.5009 119.729 54.5068 119.748 54.5148C119.768 54.5227 119.787 54.5325 119.805 54.5441C119.823 54.5557 119.839 54.5689 119.854 54.5837L120.358 55.0875L121.766 53.6805C121.781 53.6655 121.798 53.652 121.816 53.6402C121.833 53.6283 121.852 53.6184 121.872 53.6102C121.892 53.6021 121.912 53.596 121.933 53.5918C121.954 53.5877 121.976 53.5857 121.997 53.5857C122.019 53.5858 122.04 53.5879 122.061 53.5922C122.082 53.5963 122.102 53.6026 122.122 53.6107C122.142 53.619 122.161 53.6291 122.178 53.641C122.196 53.6529 122.213 53.6664 122.228 53.6816C122.243 53.6968 122.256 53.7132 122.268 53.731C122.28 53.7489 122.29 53.7676 122.299 53.7874C122.307 53.8072 122.313 53.8276 122.317 53.8486C122.322 53.8696 122.324 53.8908 122.324 53.9123C122.324 53.9337 122.322 53.9549 122.318 53.9759C122.313 53.9969 122.307 54.0174 122.299 54.0372C122.291 54.0571 122.281 54.0759 122.269 54.0938C122.257 54.1116 122.244 54.1282 122.229 54.1433L120.59 55.7817C120.559 55.8124 120.524 55.8361 120.484 55.8526C120.444 55.8693 120.402 55.8776 120.358 55.8775Z" fill="#868889"/>
<path d="M130.381 58.9748H123.179C123.158 58.9748 123.137 58.9727 123.116 58.9686C123.094 58.9643 123.074 58.9582 123.054 58.9499C123.034 58.9417 123.015 58.9316 122.998 58.9196C122.98 58.9078 122.963 58.8942 122.948 58.879C122.933 58.8638 122.919 58.8473 122.907 58.8294C122.895 58.8115 122.885 58.7927 122.877 58.7728C122.869 58.753 122.863 58.7325 122.858 58.7114C122.854 58.6904 122.852 58.669 122.852 58.6476C122.852 58.6261 122.854 58.6049 122.858 58.5837C122.863 58.5626 122.869 58.5422 122.877 58.5223C122.885 58.5025 122.895 58.4836 122.907 58.4658C122.919 58.4479 122.933 58.4314 122.948 58.4162C122.963 58.4009 122.98 58.3875 122.998 58.3755C123.015 58.3636 123.034 58.3535 123.054 58.3452C123.074 58.3371 123.094 58.3308 123.116 58.3267C123.137 58.3224 123.158 58.3203 123.179 58.3203H130.381C130.403 58.3203 130.424 58.3224 130.445 58.3267C130.466 58.3308 130.487 58.3371 130.507 58.3452C130.526 58.3535 130.545 58.3636 130.563 58.3755C130.581 58.3875 130.598 58.4009 130.613 58.4162C130.628 58.4314 130.641 58.4479 130.653 58.4658C130.665 58.4836 130.675 58.5025 130.684 58.5223C130.692 58.5422 130.698 58.5626 130.702 58.5837C130.707 58.6049 130.709 58.6261 130.709 58.6476C130.709 58.669 130.707 58.6904 130.702 58.7114C130.698 58.7325 130.692 58.753 130.684 58.7728C130.675 58.7927 130.665 58.8115 130.653 58.8294C130.641 58.8473 130.628 58.8638 130.613 58.879C130.598 58.8942 130.581 58.9078 130.563 58.9196C130.545 58.9316 130.526 58.9417 130.507 58.9499C130.487 58.9582 130.466 58.9643 130.445 58.9686C130.424 58.9727 130.403 58.9748 130.381 58.9748Z" fill="#868889"/>
<path d="M120.358 59.3643C120.315 59.3643 120.273 59.356 120.233 59.3395C120.193 59.3228 120.157 59.2992 120.127 59.2684L119.391 58.5332C119.376 58.518 119.362 58.5015 119.35 58.4836C119.338 58.4658 119.328 58.4469 119.32 58.4271C119.311 58.4071 119.305 58.3866 119.301 58.3655C119.297 58.3444 119.294 58.3231 119.294 58.3016C119.294 58.28 119.296 58.2587 119.301 58.2376C119.305 58.2165 119.311 58.1959 119.319 58.1759C119.327 58.1561 119.338 58.1372 119.349 58.1193C119.361 58.1014 119.375 58.0848 119.39 58.0695C119.406 58.0543 119.422 58.0407 119.44 58.0288C119.458 58.0168 119.477 58.0067 119.497 57.9984C119.517 57.9903 119.537 57.984 119.558 57.9799C119.58 57.9757 119.601 57.9736 119.622 57.9737C119.644 57.9737 119.665 57.9758 119.686 57.9801C119.708 57.9843 119.728 57.9907 119.748 57.999C119.768 58.0072 119.787 58.0174 119.805 58.0294C119.822 58.0414 119.839 58.0551 119.854 58.0704L120.358 58.5741L121.766 57.1673C121.781 57.1519 121.797 57.1382 121.815 57.1262C121.833 57.1141 121.852 57.1041 121.872 57.0957C121.892 57.0874 121.912 57.0811 121.933 57.0768C121.955 57.0725 121.976 57.0704 121.997 57.0703C122.019 57.0703 122.04 57.0723 122.062 57.0766C122.083 57.0807 122.103 57.0869 122.123 57.0951C122.143 57.1033 122.162 57.1135 122.18 57.1254C122.198 57.1374 122.214 57.1509 122.23 57.1662C122.245 57.1815 122.259 57.1981 122.27 57.216C122.282 57.2339 122.292 57.2528 122.301 57.2727C122.309 57.2926 122.315 57.3132 122.319 57.3343C122.323 57.3554 122.326 57.3768 122.325 57.3984C122.325 57.4199 122.323 57.4412 122.319 57.4623C122.315 57.4834 122.309 57.5039 122.3 57.5239C122.292 57.5437 122.282 57.5626 122.27 57.5804C122.258 57.5984 122.244 57.6149 122.229 57.6301L120.59 59.2684C120.559 59.2991 120.524 59.3228 120.483 59.3394C120.443 59.356 120.402 59.3643 120.358 59.3643Z" fill="#868889"/>
</g>
<path d="M196.494 29.3276C196.494 28.7982 196.872 28.5279 197.628 28.5147L205.358 28.4014L208.968 35.0175C209.143 35.4468 209.232 35.7425 209.232 35.9059C209.232 36.0572 209.14 36.2062 208.958 36.3509C208.775 36.4955 208.595 36.5677 208.419 36.5677C208.394 36.5677 208.268 36.5053 208.041 36.3786L207.058 35.8304L204.942 39.1953H214.146V48.6093H205.547C203.959 48.6093 202.698 47.8099 201.767 46.2089L196.494 37.1917C196.191 36.6625 196.04 36.033 196.04 35.3014C196.04 34.7341 196.165 34.2427 196.418 33.8268L198.195 30.9157L196.853 30.1029C196.612 29.9648 196.494 29.7057 196.494 29.3278L196.494 29.3276ZM197.382 29.687L199.008 30.6509L196.928 34.2426C196.739 34.5584 196.645 34.9486 196.645 35.4145C196.645 35.8818 196.789 36.3541 197.08 36.8323L201.729 44.8476V44.4693C201.729 43.5243 201.892 42.787 202.22 42.258L206.794 35.0175L208.155 35.6791C208.281 35.806 208.369 35.8683 208.419 35.8683C208.495 35.8436 208.533 35.806 208.533 35.7548C208.533 35.7425 208.457 35.5913 208.306 35.3012L205.055 29.0248L197.382 29.1005C197.256 29.1005 197.193 29.1763 197.193 29.3272C197.193 29.4784 197.256 29.5986 197.382 29.6866L197.382 29.687ZM224.636 21.2745L225.845 20.6129C226.072 20.4871 226.248 20.4239 226.375 20.4239C226.601 20.4239 226.828 20.5162 227.055 20.6986C227.282 20.8809 227.395 21.0854 227.395 21.3122C227.395 21.4391 227.313 21.6971 227.15 22.0875L222.973 28.7418L215.507 28.0991C214.751 28.0234 214.373 27.8156 214.373 27.4753C214.373 27.1862 214.506 26.9783 214.77 26.8513L215.81 26.1522L213.995 22.409L209.27 30.1787L201.256 25.3393L205.755 17.9482C206.561 16.6249 207.707 15.9954 209.195 16.0577L220.156 16.5114C221.012 16.5494 221.655 16.695 222.084 16.9463C222.474 17.1864 222.821 17.6077 223.124 18.2128L224.635 21.2752L224.636 21.2745ZM209.043 29.3276L213.693 21.7476L212.256 18.8742C211.563 17.4887 210.442 16.7948 208.892 16.7948C207.745 16.7948 206.787 17.4254 206.019 18.6851L202.069 25.1505L209.043 29.3281V29.3276ZM205.868 48.0992H213.485V39.8948H204.469L202.768 42.617C202.49 43.0583 202.353 43.7267 202.353 44.6208C202.353 46.9403 203.524 48.0988 205.868 48.0988L205.868 48.0992ZM215.658 27.5886L222.632 28.1367C225.392 23.7888 226.771 21.5393 226.771 21.388C226.771 21.1867 226.664 21.0856 226.45 21.0856C226.299 21.0856 226.186 21.099 226.11 21.1234L224.371 22.0118L222.557 18.4201C222.128 17.5885 221.366 17.1483 220.27 17.0969L211.16 16.6999C211.827 17.0535 212.344 17.614 212.71 18.3825L216.584 26.379L215.28 27.1537C215.141 27.2294 215.072 27.2995 215.072 27.3616C215.072 27.3873 215.267 27.463 215.658 27.5888L215.658 27.5886ZM220.572 38.8931H224.636L219.797 31.1426L227.735 26.1524L232.271 33.3921C232.725 34.1362 232.952 34.861 232.952 35.5662C232.952 36.0199 232.668 36.7949 232.101 37.8915L227.149 47.4568C226.582 48.5665 225.706 49.1204 224.522 49.1204H221.12V50.6704C221.12 51.2376 220.837 51.5212 220.27 51.5212C220.005 51.5212 219.722 51.2887 219.419 50.8217L215.11 44.3187L218.909 37.7779C219.173 37.312 219.495 37.0786 219.873 37.0786C220.339 37.0786 220.572 37.2552 220.572 37.6078V38.8933V38.8931ZM220.534 48.42H224.636C225.479 48.42 226.153 47.9423 226.658 46.9834L231.024 38.7036C230.167 39.2464 229.354 39.5167 228.586 39.5167H219.911V37.891C219.911 37.7529 219.873 37.6829 219.797 37.6829C219.734 37.7461 219.633 37.8528 219.495 38.0043L215.885 44.2802L220.156 50.7455C220.194 50.821 220.244 50.8587 220.308 50.8587C220.459 50.8587 220.534 50.7643 220.534 50.5751V48.42ZM225.335 38.8931H228.586C229.379 38.8931 230.155 38.616 230.91 38.0612C231.818 37.4064 232.271 36.5868 232.271 35.6038C232.271 34.9609 232.038 34.2615 231.572 33.5054L227.546 26.9648L220.61 31.3125L225.335 38.8927" fill="white"/>
<defs>
<filter id="filter0_d_394_1002" x="182.155" y="5.1875" width="66.1641" height="66.1001" filterUnits="userSpaceOnUse" color-interpolation-filters="sRGB">
<feFlood flood-opacity="0" result="BackgroundImageFix"/>
<feColorMatrix in="SourceAlpha" type="matrix" values="0 0 0 0 0 0 0 0 0 0 0 0 0 0 0 0 0 0 127 0" result="hardAlpha"/>
<feOffset dy="4"/>
<feGaussianBlur stdDeviation="2"/>
<feComposite in2="hardAlpha" operator="out"/>
<feColorMatrix type="matrix" values="0 0 0 0 0.423529 0 0 0 0 0.772549 0 0 0 0 0.113725 0 0 0 0.26 0"/>
<feBlend mode="normal" in2="BackgroundImageFix" result="effect1_dropShadow_394_1002"/>
<feBlend mode="normal" in="SourceGraphic" in2="effect1_dropShadow_394_1002" result="shape"/>
</filter>
<clipPath id="clip0_394_1002">
<rect width="22" height="22" fill="white" transform="translate(114 41.2625)"/>
</clipPath>
</defs>
</svg>
