<svg width="66" height="66" viewBox="0 0 66 66" fill="none" xmlns="http://www.w3.org/2000/svg">
<circle cx="33" cy="33" r="33" fill="#F5F5F5"/>
<path d="M22.3772 31.2384H18.5688C18.0432 31.2384 17.6167 30.8103 17.6167 30.2828C17.6167 29.7554 18.0432 29.3273 18.5688 29.3273H22.3772C22.9027 29.3273 23.3293 29.7554 23.3293 30.2828C23.3293 30.8103 22.9027 31.2384 22.3772 31.2384Z" fill="#868889"/>
<path d="M53.3203 31.2384H50.9401C50.4146 31.2384 49.988 30.8103 49.988 30.2828C49.988 29.7554 50.4146 29.3273 50.9401 29.3273H52.5301L53.8135 22.4626C53.7964 18.9501 50.8068 15.9497 47.1317 15.9497H40.8803L37.8507 29.3273H43.3234C43.8489 29.3273 44.2755 29.7554 44.2755 30.2828C44.2755 30.8103 43.8489 31.2384 43.3234 31.2384H36.6587C36.3693 31.2384 36.0951 31.1065 35.9142 30.8791C35.7333 30.6536 35.6647 30.3554 35.7295 30.0726L39.1913 14.7839C39.2903 14.3463 39.6749 14.0386 40.1205 14.0386H47.1317C51.856 14.0386 55.7006 17.8971 55.7006 22.6385L54.2553 30.4586C54.1715 30.9116 53.7792 31.2384 53.3203 31.2384Z" fill="#868889"/>
<path d="M47.1316 35.0606C44.5076 35.0606 42.3711 32.9182 42.3711 30.2828C42.3711 27.6475 44.5076 25.5051 47.1316 25.5051C49.7555 25.5051 51.892 27.6475 51.892 30.2828C51.892 32.9182 49.7555 35.0606 47.1316 35.0606ZM47.1316 27.4162C45.5568 27.4162 44.2753 28.7024 44.2753 30.2828C44.2753 31.8633 45.5568 33.1495 47.1316 33.1495C48.7063 33.1495 49.9878 31.8633 49.9878 30.2828C49.9878 28.7024 48.7063 27.4162 47.1316 27.4162Z" fill="#868889"/>
<path d="M26.1858 35.0606C23.5618 35.0606 21.4253 32.9182 21.4253 30.2828C21.4253 27.6475 23.5618 25.5051 26.1858 25.5051C28.8097 25.5051 30.9462 27.6475 30.9462 30.2828C30.9462 32.9182 28.8097 35.0606 26.1858 35.0606ZM26.1858 27.4162C24.611 27.4162 23.3295 28.7024 23.3295 30.2828C23.3295 31.8633 24.611 33.1495 26.1858 33.1495C27.7605 33.1495 29.042 31.8633 29.042 30.2828C29.042 28.7024 27.7605 27.4162 26.1858 27.4162Z" fill="#868889"/>
<path d="M22.3774 14.0385H14.7607C14.2351 14.0385 13.8086 13.6104 13.8086 13.083C13.8086 12.5555 14.2351 12.1274 14.7607 12.1274H22.3774C22.903 12.1274 23.3295 12.5555 23.3295 13.083C23.3295 13.6104 22.903 14.0385 22.3774 14.0385Z" fill="#868889"/>
<path d="M22.3773 19.7718H12.8564C12.3308 19.7718 11.9043 19.3437 11.9043 18.8163C11.9043 18.2888 12.3308 17.8607 12.8564 17.8607H22.3773C22.9029 17.8607 23.3294 18.2888 23.3294 18.8163C23.3294 19.3437 22.9029 19.7718 22.3773 19.7718Z" fill="#868889"/>
<path d="M22.3772 25.5051H10.9521C10.4265 25.5051 10 25.077 10 24.5495C10 24.0221 10.4265 23.594 10.9521 23.594H22.3772C22.9028 23.594 23.3293 24.0221 23.3293 24.5495C23.3293 25.077 22.9028 25.5051 22.3772 25.5051Z" fill="#868889"/>
<path d="M36.6586 31.2383H29.9939C29.4684 31.2383 29.0418 30.8103 29.0418 30.2828C29.0418 29.7553 29.4684 29.3273 29.9939 29.3273H35.8988L40.2251 10.2164H18.5688C18.0432 10.2164 17.6167 9.7883 17.6167 9.26084C17.6167 8.73338 18.0432 8.3053 18.5688 8.3053H41.419C41.7085 8.3053 41.9827 8.43716 42.1636 8.66458C42.3445 8.89009 42.413 9.18822 42.3483 9.47106L37.5878 30.493C37.4888 30.9307 37.1022 31.2383 36.6586 31.2383Z" fill="#868889"/>
</svg>
