<svg width="32" height="32" viewBox="0 0 32 32" fill="none" xmlns="http://www.w3.org/2000/svg">
<path d="M10.5 16C10.5 15.6022 10.658 15.2206 10.9393 14.9393C11.2206 14.658 11.6022 14.5 12 14.5H14.5V12C14.5 11.6022 14.658 11.2206 14.9393 10.9393C15.2206 10.658 15.6022 10.5 16 10.5C16.3978 10.5 16.7794 10.658 17.0607 10.9393C17.342 11.2206 17.5 11.6022 17.5 12V14.5H20C20.3978 14.5 20.7794 14.658 21.0607 14.9393C21.342 15.2206 21.5 15.6022 21.5 16C21.5 16.3978 21.342 16.7794 21.0607 17.0607C20.7794 17.342 20.3978 17.5 20 17.5H17.5V20C17.5 20.3978 17.342 20.7794 17.0607 21.0607C16.7794 21.342 16.3978 21.5 16 21.5C15.6022 21.5 15.2206 21.342 14.9393 21.0607C14.658 20.7794 14.5 20.3978 14.5 20V17.5H12C11.6022 17.5 11.2206 17.342 10.9393 17.0607C10.658 16.7794 10.5 16.3978 10.5 16ZM28.5 7V14C28.5 20.7863 25.21 24.9025 22.45 27.1612C19.4863 29.585 16.52 30.4113 16.395 30.4475C16.1363 30.5175 15.8637 30.5175 15.605 30.4475C15.48 30.4125 12.5138 29.585 9.55 27.1612C6.79 24.9025 3.5 20.7863 3.5 14V7C3.5 6.33696 3.76339 5.70107 4.23223 5.23223C4.70107 4.76339 5.33696 4.5 6 4.5H26C26.663 4.5 27.2989 4.76339 27.7678 5.23223C28.2366 5.70107 28.5 6.33696 28.5 7ZM25.5 7.5H6.5V14C6.5 18.4637 8.13625 22.0863 11.3638 24.7687C12.747 25.9106 14.3149 26.8081 16 27.4225C17.685 26.8077 19.2528 25.9103 20.6362 24.7687C23.8638 22.0863 25.5 18.4637 25.5 14V7.5Z" fill="#81B622" fill-opacity="0.4"/>
</svg>
