<svg width="43" height="43" viewBox="0 0 43 43" fill="none" xmlns="http://www.w3.org/2000/svg">
<path d="M22.0468 19.3951C22.4064 19.56 22.709 19.8278 22.9163 20.1646C23.1237 20.5015 23.2265 20.8923 23.2118 21.2876C23.197 21.6829 23.0654 22.0649 22.8335 22.3854C22.6017 22.7059 22.28 22.9504 21.9091 23.088C21.5383 23.2257 21.135 23.2503 20.7502 23.1587C20.3653 23.0672 20.0163 22.8635 19.7472 22.5736C19.4781 22.2837 19.3011 21.9205 19.2384 21.5299C19.1757 21.1393 19.2303 20.7389 19.3952 20.3794C19.6163 19.8972 20.0199 19.5227 20.5172 19.3381C21.0144 19.1535 21.5647 19.174 22.0468 19.3951ZM17.5772 19.5457C17.7431 19.1841 17.7584 18.7714 17.62 18.3984C17.4816 18.0255 17.2006 17.7228 16.839 17.557L12.3475 15.4973C13.8077 13.2267 16.0874 11.6068 18.7119 10.9748L19.1741 15.8775C19.1892 16.0762 19.2436 16.2699 19.3344 16.4473C19.4251 16.6248 19.5503 16.7823 19.7026 16.9108C19.855 17.0393 20.0314 17.1362 20.2215 17.1958C20.4117 17.2553 20.6118 17.2764 20.8103 17.2578C21.0087 17.2391 21.2014 17.1811 21.3771 17.0871C21.5529 16.9932 21.7081 16.8651 21.8338 16.7105C21.9595 16.5559 22.0531 16.3777 22.1092 16.1865C22.1653 15.9953 22.1827 15.7948 22.1605 15.5967L21.6408 10.1328C21.6084 9.78657 21.5042 9.45092 21.3348 9.14726C21.1654 8.84361 20.9345 8.57864 20.6569 8.36928C20.3792 8.15991 20.061 8.01077 19.7225 7.93137C19.384 7.85197 19.0326 7.84406 18.6908 7.90814C16.77 8.26596 14.9499 9.03705 13.3566 10.168C11.7632 11.2989 10.4348 12.7627 9.46324 14.4579C9.28947 14.7622 9.18088 15.0994 9.14439 15.4479C9.10789 15.7965 9.14428 16.1488 9.25124 16.4825C9.35725 16.8131 9.53097 17.118 9.76131 17.3778C9.99165 17.6376 10.2736 17.8465 10.5891 17.9913L15.5885 20.2839C15.9501 20.4497 16.3628 20.4651 16.7357 20.3267C17.1087 20.1882 17.4114 19.9073 17.5772 19.5457ZM33.9932 25.7068C34.644 23.8646 34.8864 21.903 34.7037 19.9578C34.521 18.0126 33.9176 16.1304 32.9352 14.4417C32.7608 14.1409 32.5257 13.8797 32.2447 13.6749C31.9637 13.4701 31.6431 13.3262 31.3034 13.2523C30.9636 13.1784 30.6122 13.1762 30.2716 13.2459C29.9309 13.3155 29.6086 13.4554 29.3251 13.6566L24.8511 16.8306C24.5347 17.0639 24.3225 17.412 24.2602 17.8002C24.1979 18.1883 24.2905 18.5853 24.518 18.9059C24.7454 19.2265 25.0897 19.445 25.4766 19.5143C25.8635 19.5837 26.2622 19.4984 26.5869 19.2768L30.6047 16.4258C31.8386 18.8278 32.0981 21.6133 31.3293 24.2019L26.8378 22.1422C26.4762 21.9764 26.0635 21.961 25.6905 22.0994C25.3176 22.2379 25.0149 22.5188 24.8491 22.8804C24.6832 23.242 24.6679 23.6547 24.8063 24.0277C24.9447 24.4006 25.2257 24.7033 25.5873 24.8691L30.5867 27.1618C30.9017 27.3052 31.2431 27.3816 31.5892 27.3862C31.9352 27.3908 32.2785 27.3235 32.5973 27.1885C32.92 27.0518 33.2107 26.8495 33.451 26.5944C33.6913 26.3393 33.876 26.0371 33.9932 25.7068ZM23.2214 26.5497C23.1843 26.1535 22.9913 25.7883 22.6849 25.5345C22.3784 25.2806 21.9838 25.1589 21.5876 25.196C21.1914 25.2332 20.8262 25.4262 20.5724 25.7326C20.3185 26.039 20.1968 26.4337 20.234 26.8299L20.6928 31.7008C18.0017 31.5631 15.4654 30.4 13.6051 28.4505L17.5967 25.6177C17.9211 25.3874 18.1408 25.0376 18.2074 24.6453C18.2739 24.253 18.1819 23.8504 17.9516 23.5259C17.7212 23.2014 17.3714 22.9818 16.9792 22.9152C16.5869 22.8487 16.1842 22.9407 15.8597 23.171L11.4109 26.329C11.1277 26.5299 10.8895 26.7876 10.7114 27.0857C10.5333 27.3837 10.4192 27.7156 10.3765 28.0602C10.3337 28.4048 10.3632 28.7545 10.4631 29.0871C10.563 29.4196 10.731 29.7277 10.9565 29.9917C12.2296 31.4761 13.8093 32.6669 15.5869 33.482C17.3644 34.2971 19.2975 34.7173 21.253 34.7135C21.6002 34.7121 21.9434 34.6384 22.2605 34.4971C22.5777 34.3558 22.862 34.15 23.0952 33.8928C23.3284 33.6355 23.5055 33.3325 23.6152 33.0031C23.7248 32.6736 23.7647 32.325 23.7321 31.9793L23.2214 26.5497Z" fill="#81B622" fill-opacity="0.4"/>
</svg>
